solid "blodyLong"
   facet normal 9.988138e-001 4.869241e-002 0.000000e+000
      outer loop
         vertex 3.000000e-001 0.000000e+000 2.000000e+000
         vertex 2.991997e-001 2.189859e-002 -2.000000e+000
         vertex 2.991997e-001 2.189859e-002 2.000000e+000
      endloop
   endfacet
   facet normal 9.952595e-001 9.725494e-002 0.000000e+000
      outer loop
         vertex 2.991997e-001 2.189859e-002 2.000000e+000
         vertex 2.991997e-001 2.189859e-002 -2.000000e+000
         vertex 2.968030e-001 4.368035e-002 -2.000000e+000
      endloop
   endfacet
   facet normal 9.925949e-001 1.214713e-001 0.000000e+000
      outer loop
         vertex 2.991997e-001 2.189859e-002 2.000000e+000
         vertex 2.968030e-001 4.368035e-002 -2.000000e+000
         vertex 2.968030e-001 4.368035e-002 2.000000e+000
      endloop
   endfacet
   facet normal 9.855053e-001 1.696448e-001 0.000000e+000
      outer loop
         vertex 2.968030e-001 4.368035e-002 2.000000e+000
         vertex 2.968030e-001 4.368035e-002 -2.000000e+000
         vertex 2.928227e-001 6.522905e-002 -2.000000e+000
      endloop
   endfacet
   facet normal 9.810802e-001 1.936020e-001 0.000000e+000
      outer loop
         vertex 2.968030e-001 4.368035e-002 2.000000e+000
         vertex 2.928227e-001 6.522905e-002 -2.000000e+000
         vertex 2.928227e-001 6.522905e-002 2.000000e+000
      endloop
   endfacet
   facet normal 9.704929e-001 2.411295e-001 0.000000e+000
      outer loop
         vertex 2.928227e-001 6.522905e-002 2.000000e+000
         vertex 2.928227e-001 6.522905e-002 -2.000000e+000
         vertex 2.872802e-001 8.642973e-002 -2.000000e+000
      endloop
   endfacet
   facet normal 9.643309e-001 2.646998e-001 0.000000e+000
      outer loop
         vertex 2.928227e-001 6.522905e-002 2.000000e+000
         vertex 2.872802e-001 8.642973e-002 -2.000000e+000
         vertex 2.872802e-001 8.642973e-002 2.000000e+000
      endloop
   endfacet
   facet normal 9.503027e-001 3.113276e-001 0.000000e+000
      outer loop
         vertex 2.872802e-001 8.642973e-002 2.000000e+000
         vertex 2.872802e-001 8.642973e-002 -2.000000e+000
         vertex 2.802048e-001 1.071693e-001 -2.000000e+000
      endloop
   endfacet
   facet normal 9.424365e-001 3.343852e-001 0.000000e+000
      outer loop
         vertex 2.872802e-001 8.642973e-002 2.000000e+000
         vertex 2.802048e-001 1.071693e-001 -2.000000e+000
         vertex 2.802048e-001 1.071693e-001 2.000000e+000
      endloop
   endfacet
   facet normal 9.250420e-001 3.798648e-001 0.000000e+000
      outer loop
         vertex 2.802048e-001 1.071693e-001 2.000000e+000
         vertex 2.802048e-001 1.071693e-001 -2.000000e+000
         vertex 2.716345e-001 1.273370e-001 -2.000000e+000
      endloop
   endfacet
   facet normal 9.155138e-001 4.022867e-001 0.000000e+000
      outer loop
         vertex 2.802048e-001 1.071693e-001 2.000000e+000
         vertex 2.716345e-001 1.273370e-001 -2.000000e+000
         vertex 2.716345e-001 1.273370e-001 2.000000e+000
      endloop
   endfacet
   facet normal 8.948460e-001 4.463751e-001 0.000000e+000
      outer loop
         vertex 2.716345e-001 1.273370e-001 2.000000e+000
         vertex 2.716345e-001 1.273370e-001 -2.000000e+000
         vertex 2.616148e-001 1.468254e-001 -2.000000e+000
      endloop
   endfacet
   facet normal 8.837064e-001 4.680417e-001 0.000000e+000
      outer loop
         vertex 2.716345e-001 1.273370e-001 2.000000e+000
         vertex 2.616148e-001 1.468254e-001 -2.000000e+000
         vertex 2.616148e-001 1.468254e-001 2.000000e+000
      endloop
   endfacet
   facet normal 8.598754e-001 5.105039e-001 0.000000e+000
      outer loop
         vertex 2.616148e-001 1.468254e-001 2.000000e+000
         vertex 2.616148e-001 1.468254e-001 -2.000000e+000
         vertex 2.501993e-001 1.655303e-001 -2.000000e+000
      endloop
   endfacet
   facet normal 8.471841e-001 5.312995e-001 0.000000e+000
      outer loop
         vertex 2.616148e-001 1.468254e-001 2.000000e+000
         vertex 2.501993e-001 1.655303e-001 -2.000000e+000
         vertex 2.501993e-001 1.655303e-001 2.000000e+000
      endloop
   endfacet
   facet normal 8.203171e-001 5.719089e-001 0.000000e+000
      outer loop
         vertex 2.501993e-001 1.655303e-001 2.000000e+000
         vertex 2.501993e-001 1.655303e-001 -2.000000e+000
         vertex 2.374489e-001 1.833521e-001 -2.000000e+000
      endloop
   endfacet
   facet normal 8.061416e-001 5.917226e-001 0.000000e+000
      outer loop
         vertex 2.501993e-001 1.655303e-001 2.000000e+000
         vertex 2.374489e-001 1.833521e-001 -2.000000e+000
         vertex 2.374489e-001 1.833521e-001 2.000000e+000
      endloop
   endfacet
   facet normal 7.763821e-001 6.302624e-001 0.000000e+000
      outer loop
         vertex 2.374489e-001 1.833521e-001 2.000000e+000
         vertex 2.374489e-001 1.833521e-001 -2.000000e+000
         vertex 2.234317e-001 2.001956e-001 -2.000000e+000
      endloop
   endfacet
   facet normal 7.607981e-001 6.489886e-001 0.000000e+000
      outer loop
         vertex 2.374489e-001 1.833521e-001 2.000000e+000
         vertex 2.234317e-001 2.001956e-001 -2.000000e+000
         vertex 2.234317e-001 2.001956e-001 2.000000e+000
      endloop
   endfacet
   facet normal 7.283047e-001 6.852534e-001 0.000000e+000
      outer loop
         vertex 2.234317e-001 2.001956e-001 2.000000e+000
         vertex 2.234317e-001 2.001956e-001 -2.000000e+000
         vertex 2.082223e-001 2.159710e-001 -2.000000e+000
      endloop
   endfacet
   facet normal 7.113954e-001 7.027920e-001 0.000000e+000
      outer loop
         vertex 2.234317e-001 2.001956e-001 2.000000e+000
         vertex 2.082223e-001 2.159710e-001 -2.000000e+000
         vertex 2.082223e-001 2.159710e-001 2.000000e+000
      endloop
   endfacet
   facet normal 6.763415e-001 7.365882e-001 0.000000e+000
      outer loop
         vertex 2.082223e-001 2.159710e-001 2.000000e+000
         vertex 2.082223e-001 2.159710e-001 -2.000000e+000
         vertex 1.919019e-001 2.305941e-001 -2.000000e+000
      endloop
   endfacet
   facet normal 6.581970e-001 7.528457e-001 0.000000e+000
      outer loop
         vertex 2.082223e-001 2.159710e-001 2.000000e+000
         vertex 1.919019e-001 2.305941e-001 -2.000000e+000
         vertex 1.919019e-001 2.305941e-001 2.000000e+000
      endloop
   endfacet
   facet normal 6.207697e-001 7.839929e-001 0.000000e+000
      outer loop
         vertex 1.919019e-001 2.305941e-001 2.000000e+000
         vertex 1.919019e-001 2.305941e-001 -2.000000e+000
         vertex 1.745577e-001 2.439869e-001 -2.000000e+000
      endloop
   endfacet
   facet normal 6.014870e-001 7.988826e-001 0.000000e+000
      outer loop
         vertex 1.919019e-001 2.305941e-001 2.000000e+000
         vertex 1.745577e-001 2.439869e-001 -2.000000e+000
         vertex 1.745577e-001 2.439869e-001 2.000000e+000
      endloop
   endfacet
   facet normal 5.618860e-001 8.272147e-001 0.000000e+000
      outer loop
         vertex 1.745577e-001 2.439869e-001 2.000000e+000
         vertex 1.745577e-001 2.439869e-001 -2.000000e+000
         vertex 1.562821e-001 2.560779e-001 -2.000000e+000
      endloop
   endfacet
   facet normal 5.415677e-001 8.406571e-001 0.000000e+000
      outer loop
         vertex 1.745577e-001 2.439869e-001 2.000000e+000
         vertex 1.562821e-001 2.560779e-001 -2.000000e+000
         vertex 1.562821e-001 2.560779e-001 2.000000e+000
      endloop
   endfacet
   facet normal 5.000042e-001 8.660230e-001 0.000000e+000
      outer loop
         vertex 1.562821e-001 2.560779e-001 2.000000e+000
         vertex 1.562821e-001 2.560779e-001 -2.000000e+000
         vertex 1.371727e-001 2.668026e-001 -2.000000e+000
      endloop
   endfacet
   facet normal 4.787589e-001 8.779464e-001 0.000000e+000
      outer loop
         vertex 1.562821e-001 2.560779e-001 2.000000e+000
         vertex 1.371727e-001 2.668026e-001 -2.000000e+000
         vertex 1.371727e-001 2.668026e-001 2.000000e+000
      endloop
   endfacet
   facet normal 4.354547e-001 9.002107e-001 0.000000e+000
      outer loop
         vertex 1.371727e-001 2.668026e-001 2.000000e+000
         vertex 1.371727e-001 2.668026e-001 -2.000000e+000
         vertex 1.173314e-001 2.761039e-001 -2.000000e+000
      endloop
   endfacet
   facet normal 4.133957e-001 9.105514e-001 0.000000e+000
      outer loop
         vertex 1.371727e-001 2.668026e-001 2.000000e+000
         vertex 1.173314e-001 2.761039e-001 -2.000000e+000
         vertex 1.173314e-001 2.761039e-001 2.000000e+000
      endloop
   endfacet
   facet normal 3.685818e-001 9.295953e-001 0.000000e+000
      outer loop
         vertex 1.173314e-001 2.761039e-001 2.000000e+000
         vertex 1.173314e-001 2.761039e-001 -2.000000e+000
         vertex 9.686412e-002 2.839319e-001 -2.000000e+000
      endloop
   endfacet
   facet normal 3.458269e-001 9.382983e-001 0.000000e+000
      outer loop
         vertex 1.173314e-001 2.761039e-001 2.000000e+000
         vertex 9.686412e-002 2.839319e-001 -2.000000e+000
         vertex 9.686412e-002 2.839319e-001 2.000000e+000
      endloop
   endfacet
   facet normal 2.997425e-001 9.540201e-001 0.000000e+000
      outer loop
         vertex 9.686412e-002 2.839319e-001 2.000000e+000
         vertex 9.686412e-002 2.839319e-001 -2.000000e+000
         vertex 7.588001e-002 2.902451e-001 -2.000000e+000
      endloop
   endfacet
   facet normal 2.764130e-001 9.610389e-001 0.000000e+000
      outer loop
         vertex 9.686412e-002 2.839319e-001 2.000000e+000
         vertex 7.588001e-002 2.902451e-001 -2.000000e+000
         vertex 7.588001e-002 2.902451e-001 2.000000e+000
      endloop
   endfacet
   facet normal 2.293039e-001 9.733549e-001 0.000000e+000
      outer loop
         vertex 7.588001e-002 2.902451e-001 2.000000e+000
         vertex 7.588001e-002 2.902451e-001 -2.000000e+000
         vertex 5.449105e-002 2.950097e-001 -2.000000e+000
      endloop
   endfacet
   facet normal 2.055243e-001 9.786521e-001 0.000000e+000
      outer loop
         vertex 7.588001e-002 2.902451e-001 2.000000e+000
         vertex 5.449105e-002 2.950097e-001 -2.000000e+000
         vertex 5.449105e-002 2.950097e-001 2.000000e+000
      endloop
   endfacet
   facet normal 1.576418e-001 9.874964e-001 0.000000e+000
      outer loop
         vertex 5.449105e-002 2.950097e-001 2.000000e+000
         vertex 5.449105e-002 2.950097e-001 -2.000000e+000
         vertex 3.281136e-002 2.982003e-001 -2.000000e+000
      endloop
   endfacet
   facet normal 1.335389e-001 9.910436e-001 0.000000e+000
      outer loop
         vertex 5.449105e-002 2.950097e-001 2.000000e+000
         vertex 3.281136e-002 2.982003e-001 -2.000000e+000
         vertex 3.281136e-002 2.982003e-001 2.000000e+000
      endloop
   endfacet
   facet normal 8.513863e-002 9.963691e-001 0.000000e+000
      outer loop
         vertex 3.281136e-002 2.982003e-001 2.000000e+000
         vertex 3.281136e-002 2.982003e-001 -2.000000e+000
         vertex 1.095661e-002 2.997999e-001 -2.000000e+000
      endloop
   endfacet
   facet normal 6.084116e-002 9.981475e-001 0.000000e+000
      outer loop
         vertex 3.281136e-002 2.982003e-001 2.000000e+000
         vertex 1.095661e-002 2.997999e-001 -2.000000e+000
         vertex 1.095661e-002 2.997999e-001 2.000000e+000
      endloop
   endfacet
   facet normal 1.218123e-002 9.999258e-001 0.000000e+000
      outer loop
         vertex 1.095661e-002 2.997999e-001 2.000000e+000
         vertex 1.095661e-002 2.997999e-001 -2.000000e+000
         vertex -1.095661e-002 2.997999e-001 -2.000000e+000
      endloop
   endfacet
   facet normal -1.218123e-002 9.999258e-001 0.000000e+000
      outer loop
         vertex 1.095661e-002 2.997999e-001 2.000000e+000
         vertex -1.095661e-002 2.997999e-001 -2.000000e+000
         vertex -1.095661e-002 2.997999e-001 2.000000e+000
      endloop
   endfacet
   facet normal -6.084116e-002 9.981475e-001 0.000000e+000
      outer loop
         vertex -1.095661e-002 2.997999e-001 2.000000e+000
         vertex -1.095661e-002 2.997999e-001 -2.000000e+000
         vertex -3.281136e-002 2.982003e-001 -2.000000e+000
      endloop
   endfacet
   facet normal -8.513863e-002 9.963691e-001 0.000000e+000
      outer loop
         vertex -1.095661e-002 2.997999e-001 2.000000e+000
         vertex -3.281136e-002 2.982003e-001 -2.000000e+000
         vertex -3.281136e-002 2.982003e-001 2.000000e+000
      endloop
   endfacet
   facet normal -1.335389e-001 9.910436e-001 0.000000e+000
      outer loop
         vertex -3.281136e-002 2.982003e-001 2.000000e+000
         vertex -3.281136e-002 2.982003e-001 -2.000000e+000
         vertex -5.449105e-002 2.950097e-001 -2.000000e+000
      endloop
   endfacet
   facet normal -1.576418e-001 9.874964e-001 0.000000e+000
      outer loop
         vertex -3.281136e-002 2.982003e-001 2.000000e+000
         vertex -5.449105e-002 2.950097e-001 -2.000000e+000
         vertex -5.449105e-002 2.950097e-001 2.000000e+000
      endloop
   endfacet
   facet normal -2.055243e-001 9.786521e-001 0.000000e+000
      outer loop
         vertex -5.449105e-002 2.950097e-001 2.000000e+000
         vertex -5.449105e-002 2.950097e-001 -2.000000e+000
         vertex -7.588001e-002 2.902451e-001 -2.000000e+000
      endloop
   endfacet
   facet normal -2.293039e-001 9.733549e-001 0.000000e+000
      outer loop
         vertex -5.449105e-002 2.950097e-001 2.000000e+000
         vertex -7.588001e-002 2.902451e-001 -2.000000e+000
         vertex -7.588001e-002 2.902451e-001 2.000000e+000
      endloop
   endfacet
   facet normal -2.764130e-001 9.610389e-001 0.000000e+000
      outer loop
         vertex -7.588001e-002 2.902451e-001 2.000000e+000
         vertex -7.588001e-002 2.902451e-001 -2.000000e+000
         vertex -9.686412e-002 2.839319e-001 -2.000000e+000
      endloop
   endfacet
   facet normal -2.997425e-001 9.540201e-001 0.000000e+000
      outer loop
         vertex -7.588001e-002 2.902451e-001 2.000000e+000
         vertex -9.686412e-002 2.839319e-001 -2.000000e+000
         vertex -9.686412e-002 2.839319e-001 2.000000e+000
      endloop
   endfacet
   facet normal -3.458269e-001 9.382983e-001 0.000000e+000
      outer loop
         vertex -9.686412e-002 2.839319e-001 2.000000e+000
         vertex -9.686412e-002 2.839319e-001 -2.000000e+000
         vertex -1.173314e-001 2.761039e-001 -2.000000e+000
      endloop
   endfacet
   facet normal -3.685818e-001 9.295953e-001 0.000000e+000
      outer loop
         vertex -9.686412e-002 2.839319e-001 2.000000e+000
         vertex -1.173314e-001 2.761039e-001 -2.000000e+000
         vertex -1.173314e-001 2.761039e-001 2.000000e+000
      endloop
   endfacet
   facet normal -4.133957e-001 9.105514e-001 0.000000e+000
      outer loop
         vertex -1.173314e-001 2.761039e-001 2.000000e+000
         vertex -1.173314e-001 2.761039e-001 -2.000000e+000
         vertex -1.371727e-001 2.668026e-001 -2.000000e+000
      endloop
   endfacet
   facet normal -4.354547e-001 9.002106e-001 0.000000e+000
      outer loop
         vertex -1.173314e-001 2.761039e-001 2.000000e+000
         vertex -1.371727e-001 2.668026e-001 -2.000000e+000
         vertex -1.371727e-001 2.668026e-001 2.000000e+000
      endloop
   endfacet
   facet normal -4.787589e-001 8.779464e-001 0.000000e+000
      outer loop
         vertex -1.371727e-001 2.668026e-001 2.000000e+000
         vertex -1.371727e-001 2.668026e-001 -2.000000e+000
         vertex -1.562821e-001 2.560779e-001 -2.000000e+000
      endloop
   endfacet
   facet normal -5.000042e-001 8.660230e-001 0.000000e+000
      outer loop
         vertex -1.371727e-001 2.668026e-001 2.000000e+000
         vertex -1.562821e-001 2.560779e-001 -2.000000e+000
         vertex -1.562821e-001 2.560779e-001 2.000000e+000
      endloop
   endfacet
   facet normal -5.415677e-001 8.406571e-001 0.000000e+000
      outer loop
         vertex -1.562821e-001 2.560779e-001 2.000000e+000
         vertex -1.562821e-001 2.560779e-001 -2.000000e+000
         vertex -1.745577e-001 2.439869e-001 -2.000000e+000
      endloop
   endfacet
   facet normal -5.618860e-001 8.272147e-001 0.000000e+000
      outer loop
         vertex -1.562821e-001 2.560779e-001 2.000000e+000
         vertex -1.745577e-001 2.439869e-001 -2.000000e+000
         vertex -1.745577e-001 2.439869e-001 2.000000e+000
      endloop
   endfacet
   facet normal -6.014870e-001 7.988826e-001 0.000000e+000
      outer loop
         vertex -1.745577e-001 2.439869e-001 2.000000e+000
         vertex -1.745577e-001 2.439869e-001 -2.000000e+000
         vertex -1.919019e-001 2.305941e-001 -2.000000e+000
      endloop
   endfacet
   facet normal -6.207697e-001 7.839929e-001 0.000000e+000
      outer loop
         vertex -1.745577e-001 2.439869e-001 2.000000e+000
         vertex -1.919019e-001 2.305941e-001 -2.000000e+000
         vertex -1.919019e-001 2.305941e-001 2.000000e+000
      endloop
   endfacet
   facet normal -6.581970e-001 7.528457e-001 0.000000e+000
      outer loop
         vertex -1.919019e-001 2.305941e-001 2.000000e+000
         vertex -1.919019e-001 2.305941e-001 -2.000000e+000
         vertex -2.082223e-001 2.159710e-001 -2.000000e+000
      endloop
   endfacet
   facet normal -6.763415e-001 7.365882e-001 0.000000e+000
      outer loop
         vertex -1.919019e-001 2.305941e-001 2.000000e+000
         vertex -2.082223e-001 2.159710e-001 -2.000000e+000
         vertex -2.082223e-001 2.159710e-001 2.000000e+000
      endloop
   endfacet
   facet normal -7.113954e-001 7.027920e-001 0.000000e+000
      outer loop
         vertex -2.082223e-001 2.159710e-001 2.000000e+000
         vertex -2.082223e-001 2.159710e-001 -2.000000e+000
         vertex -2.234317e-001 2.001956e-001 -2.000000e+000
      endloop
   endfacet
   facet normal -7.283047e-001 6.852534e-001 0.000000e+000
      outer loop
         vertex -2.082223e-001 2.159710e-001 2.000000e+000
         vertex -2.234317e-001 2.001956e-001 -2.000000e+000
         vertex -2.234317e-001 2.001956e-001 2.000000e+000
      endloop
   endfacet
   facet normal -7.607981e-001 6.489886e-001 0.000000e+000
      outer loop
         vertex -2.234317e-001 2.001956e-001 2.000000e+000
         vertex -2.234317e-001 2.001956e-001 -2.000000e+000
         vertex -2.374489e-001 1.833521e-001 -2.000000e+000
      endloop
   endfacet
   facet normal -7.763821e-001 6.302624e-001 0.000000e+000
      outer loop
         vertex -2.234317e-001 2.001956e-001 2.000000e+000
         vertex -2.374489e-001 1.833521e-001 -2.000000e+000
         vertex -2.374489e-001 1.833521e-001 2.000000e+000
      endloop
   endfacet
   facet normal -8.061416e-001 5.917226e-001 0.000000e+000
      outer loop
         vertex -2.374489e-001 1.833521e-001 2.000000e+000
         vertex -2.374489e-001 1.833521e-001 -2.000000e+000
         vertex -2.501993e-001 1.655303e-001 -2.000000e+000
      endloop
   endfacet
   facet normal -8.203171e-001 5.719089e-001 0.000000e+000
      outer loop
         vertex -2.374489e-001 1.833521e-001 2.000000e+000
         vertex -2.501993e-001 1.655303e-001 -2.000000e+000
         vertex -2.501993e-001 1.655303e-001 2.000000e+000
      endloop
   endfacet
   facet normal -8.471841e-001 5.312995e-001 0.000000e+000
      outer loop
         vertex -2.501993e-001 1.655303e-001 2.000000e+000
         vertex -2.501993e-001 1.655303e-001 -2.000000e+000
         vertex -2.616148e-001 1.468254e-001 -2.000000e+000
      endloop
   endfacet
   facet normal -8.598754e-001 5.105039e-001 0.000000e+000
      outer loop
         vertex -2.501993e-001 1.655303e-001 2.000000e+000
         vertex -2.616148e-001 1.468254e-001 -2.000000e+000
         vertex -2.616148e-001 1.468254e-001 2.000000e+000
      endloop
   endfacet
   facet normal -8.837064e-001 4.680417e-001 0.000000e+000
      outer loop
         vertex -2.616148e-001 1.468254e-001 2.000000e+000
         vertex -2.616148e-001 1.468254e-001 -2.000000e+000
         vertex -2.716345e-001 1.273370e-001 -2.000000e+000
      endloop
   endfacet
   facet normal -8.948460e-001 4.463751e-001 0.000000e+000
      outer loop
         vertex -2.616148e-001 1.468254e-001 2.000000e+000
         vertex -2.716345e-001 1.273370e-001 -2.000000e+000
         vertex -2.716345e-001 1.273370e-001 2.000000e+000
      endloop
   endfacet
   facet normal -9.155138e-001 4.022867e-001 0.000000e+000
      outer loop
         vertex -2.716345e-001 1.273370e-001 2.000000e+000
         vertex -2.716345e-001 1.273370e-001 -2.000000e+000
         vertex -2.802048e-001 1.071693e-001 -2.000000e+000
      endloop
   endfacet
   facet normal -9.250420e-001 3.798648e-001 0.000000e+000
      outer loop
         vertex -2.716345e-001 1.273370e-001 2.000000e+000
         vertex -2.802048e-001 1.071693e-001 -2.000000e+000
         vertex -2.802048e-001 1.071693e-001 2.000000e+000
      endloop
   endfacet
   facet normal -9.424365e-001 3.343852e-001 0.000000e+000
      outer loop
         vertex -2.802048e-001 1.071693e-001 2.000000e+000
         vertex -2.802048e-001 1.071693e-001 -2.000000e+000
         vertex -2.872802e-001 8.642973e-002 -2.000000e+000
      endloop
   endfacet
   facet normal -9.503027e-001 3.113276e-001 0.000000e+000
      outer loop
         vertex -2.802048e-001 1.071693e-001 2.000000e+000
         vertex -2.872802e-001 8.642973e-002 -2.000000e+000
         vertex -2.872802e-001 8.642973e-002 2.000000e+000
      endloop
   endfacet
   facet normal -9.643309e-001 2.646998e-001 0.000000e+000
      outer loop
         vertex -2.872802e-001 8.642973e-002 2.000000e+000
         vertex -2.872802e-001 8.642973e-002 -2.000000e+000
         vertex -2.928227e-001 6.522905e-002 -2.000000e+000
      endloop
   endfacet
   facet normal -9.704929e-001 2.411295e-001 0.000000e+000
      outer loop
         vertex -2.872802e-001 8.642973e-002 2.000000e+000
         vertex -2.928227e-001 6.522905e-002 -2.000000e+000
         vertex -2.928227e-001 6.522905e-002 2.000000e+000
      endloop
   endfacet
   facet normal -9.810802e-001 1.936020e-001 0.000000e+000
      outer loop
         vertex -2.928227e-001 6.522905e-002 2.000000e+000
         vertex -2.928227e-001 6.522905e-002 -2.000000e+000
         vertex -2.968030e-001 4.368035e-002 -2.000000e+000
      endloop
   endfacet
   facet normal -9.855053e-001 1.696448e-001 0.000000e+000
      outer loop
         vertex -2.928227e-001 6.522905e-002 2.000000e+000
         vertex -2.968030e-001 4.368035e-002 -2.000000e+000
         vertex -2.968030e-001 4.368035e-002 2.000000e+000
      endloop
   endfacet
   facet normal -9.925949e-001 1.214712e-001 0.000000e+000
      outer loop
         vertex -2.968030e-001 4.368035e-002 2.000000e+000
         vertex -2.968030e-001 4.368035e-002 -2.000000e+000
         vertex -2.991997e-001 2.189859e-002 -2.000000e+000
      endloop
   endfacet
   facet normal -9.952595e-001 9.725494e-002 0.000000e+000
      outer loop
         vertex -2.968030e-001 4.368035e-002 2.000000e+000
         vertex -2.991997e-001 2.189859e-002 -2.000000e+000
         vertex -2.991997e-001 2.189859e-002 2.000000e+000
      endloop
   endfacet
   facet normal -9.988138e-001 4.869241e-002 0.000000e+000
      outer loop
         vertex -2.991997e-001 2.189859e-002 2.000000e+000
         vertex -2.991997e-001 2.189859e-002 -2.000000e+000
         vertex -3.000000e-001 3.673941e-017 -2.000000e+000
      endloop
   endfacet
   facet normal -9.997036e-001 2.434621e-002 0.000000e+000
      outer loop
         vertex -2.991997e-001 2.189859e-002 2.000000e+000
         vertex -3.000000e-001 3.673941e-017 -2.000000e+000
         vertex -3.000000e-001 3.673941e-017 2.000000e+000
      endloop
   endfacet
   facet normal -9.997036e-001 -2.434621e-002 0.000000e+000
      outer loop
         vertex -3.000000e-001 3.673941e-017 2.000000e+000
         vertex -3.000000e-001 3.673941e-017 -2.000000e+000
         vertex -2.991997e-001 -2.189859e-002 -2.000000e+000
      endloop
   endfacet
   facet normal -9.988138e-001 -4.869241e-002 0.000000e+000
      outer loop
         vertex -3.000000e-001 3.673941e-017 2.000000e+000
         vertex -2.991997e-001 -2.189859e-002 -2.000000e+000
         vertex -2.991997e-001 -2.189859e-002 2.000000e+000
      endloop
   endfacet
   facet normal -9.952595e-001 -9.725494e-002 0.000000e+000
      outer loop
         vertex -2.991997e-001 -2.189859e-002 2.000000e+000
         vertex -2.991997e-001 -2.189859e-002 -2.000000e+000
         vertex -2.968030e-001 -4.368035e-002 -2.000000e+000
      endloop
   endfacet
   facet normal -9.925949e-001 -1.214713e-001 0.000000e+000
      outer loop
         vertex -2.991997e-001 -2.189859e-002 2.000000e+000
         vertex -2.968030e-001 -4.368035e-002 -2.000000e+000
         vertex -2.968030e-001 -4.368035e-002 2.000000e+000
      endloop
   endfacet
   facet normal -9.855053e-001 -1.696448e-001 0.000000e+000
      outer loop
         vertex -2.968030e-001 -4.368035e-002 2.000000e+000
         vertex -2.968030e-001 -4.368035e-002 -2.000000e+000
         vertex -2.928227e-001 -6.522905e-002 -2.000000e+000
      endloop
   endfacet
   facet normal -9.810802e-001 -1.936020e-001 0.000000e+000
      outer loop
         vertex -2.968030e-001 -4.368035e-002 2.000000e+000
         vertex -2.928227e-001 -6.522905e-002 -2.000000e+000
         vertex -2.928227e-001 -6.522905e-002 2.000000e+000
      endloop
   endfacet
   facet normal -9.704929e-001 -2.411295e-001 0.000000e+000
      outer loop
         vertex -2.928227e-001 -6.522905e-002 2.000000e+000
         vertex -2.928227e-001 -6.522905e-002 -2.000000e+000
         vertex -2.872802e-001 -8.642973e-002 -2.000000e+000
      endloop
   endfacet
   facet normal -9.643309e-001 -2.646998e-001 0.000000e+000
      outer loop
         vertex -2.928227e-001 -6.522905e-002 2.000000e+000
         vertex -2.872802e-001 -8.642973e-002 -2.000000e+000
         vertex -2.872802e-001 -8.642973e-002 2.000000e+000
      endloop
   endfacet
   facet normal -9.503027e-001 -3.113276e-001 0.000000e+000
      outer loop
         vertex -2.872802e-001 -8.642973e-002 2.000000e+000
         vertex -2.872802e-001 -8.642973e-002 -2.000000e+000
         vertex -2.802048e-001 -1.071693e-001 -2.000000e+000
      endloop
   endfacet
   facet normal -9.424365e-001 -3.343852e-001 0.000000e+000
      outer loop
         vertex -2.872802e-001 -8.642973e-002 2.000000e+000
         vertex -2.802048e-001 -1.071693e-001 -2.000000e+000
         vertex -2.802048e-001 -1.071693e-001 2.000000e+000
      endloop
   endfacet
   facet normal -9.250420e-001 -3.798648e-001 0.000000e+000
      outer loop
         vertex -2.802048e-001 -1.071693e-001 2.000000e+000
         vertex -2.802048e-001 -1.071693e-001 -2.000000e+000
         vertex -2.716345e-001 -1.273370e-001 -2.000000e+000
      endloop
   endfacet
   facet normal -9.155138e-001 -4.022867e-001 0.000000e+000
      outer loop
         vertex -2.802048e-001 -1.071693e-001 2.000000e+000
         vertex -2.716345e-001 -1.273370e-001 -2.000000e+000
         vertex -2.716345e-001 -1.273370e-001 2.000000e+000
      endloop
   endfacet
   facet normal -8.948460e-001 -4.463751e-001 0.000000e+000
      outer loop
         vertex -2.716345e-001 -1.273370e-001 2.000000e+000
         vertex -2.716345e-001 -1.273370e-001 -2.000000e+000
         vertex -2.616148e-001 -1.468254e-001 -2.000000e+000
      endloop
   endfacet
   facet normal -8.837064e-001 -4.680417e-001 0.000000e+000
      outer loop
         vertex -2.716345e-001 -1.273370e-001 2.000000e+000
         vertex -2.616148e-001 -1.468254e-001 -2.000000e+000
         vertex -2.616148e-001 -1.468254e-001 2.000000e+000
      endloop
   endfacet
   facet normal -8.598754e-001 -5.105039e-001 0.000000e+000
      outer loop
         vertex -2.616148e-001 -1.468254e-001 2.000000e+000
         vertex -2.616148e-001 -1.468254e-001 -2.000000e+000
         vertex -2.501993e-001 -1.655303e-001 -2.000000e+000
      endloop
   endfacet
   facet normal -8.471841e-001 -5.312995e-001 0.000000e+000
      outer loop
         vertex -2.616148e-001 -1.468254e-001 2.000000e+000
         vertex -2.501993e-001 -1.655303e-001 -2.000000e+000
         vertex -2.501993e-001 -1.655303e-001 2.000000e+000
      endloop
   endfacet
   facet normal -8.203171e-001 -5.719089e-001 0.000000e+000
      outer loop
         vertex -2.501993e-001 -1.655303e-001 2.000000e+000
         vertex -2.501993e-001 -1.655303e-001 -2.000000e+000
         vertex -2.374489e-001 -1.833521e-001 -2.000000e+000
      endloop
   endfacet
   facet normal -8.061416e-001 -5.917226e-001 0.000000e+000
      outer loop
         vertex -2.501993e-001 -1.655303e-001 2.000000e+000
         vertex -2.374489e-001 -1.833521e-001 -2.000000e+000
         vertex -2.374489e-001 -1.833521e-001 2.000000e+000
      endloop
   endfacet
   facet normal -7.763821e-001 -6.302624e-001 0.000000e+000
      outer loop
         vertex -2.374489e-001 -1.833521e-001 2.000000e+000
         vertex -2.374489e-001 -1.833521e-001 -2.000000e+000
         vertex -2.234317e-001 -2.001956e-001 -2.000000e+000
      endloop
   endfacet
   facet normal -7.607981e-001 -6.489886e-001 0.000000e+000
      outer loop
         vertex -2.374489e-001 -1.833521e-001 2.000000e+000
         vertex -2.234317e-001 -2.001956e-001 -2.000000e+000
         vertex -2.234317e-001 -2.001956e-001 2.000000e+000
      endloop
   endfacet
   facet normal -7.283047e-001 -6.852534e-001 0.000000e+000
      outer loop
         vertex -2.234317e-001 -2.001956e-001 2.000000e+000
         vertex -2.234317e-001 -2.001956e-001 -2.000000e+000
         vertex -2.082223e-001 -2.159710e-001 -2.000000e+000
      endloop
   endfacet
   facet normal -7.113954e-001 -7.027920e-001 0.000000e+000
      outer loop
         vertex -2.234317e-001 -2.001956e-001 2.000000e+000
         vertex -2.082223e-001 -2.159710e-001 -2.000000e+000
         vertex -2.082223e-001 -2.159710e-001 2.000000e+000
      endloop
   endfacet
   facet normal -6.763415e-001 -7.365882e-001 0.000000e+000
      outer loop
         vertex -2.082223e-001 -2.159710e-001 2.000000e+000
         vertex -2.082223e-001 -2.159710e-001 -2.000000e+000
         vertex -1.919019e-001 -2.305941e-001 -2.000000e+000
      endloop
   endfacet
   facet normal -6.581970e-001 -7.528457e-001 0.000000e+000
      outer loop
         vertex -2.082223e-001 -2.159710e-001 2.000000e+000
         vertex -1.919019e-001 -2.305941e-001 -2.000000e+000
         vertex -1.919019e-001 -2.305941e-001 2.000000e+000
      endloop
   endfacet
   facet normal -6.207697e-001 -7.839929e-001 0.000000e+000
      outer loop
         vertex -1.919019e-001 -2.305941e-001 2.000000e+000
         vertex -1.919019e-001 -2.305941e-001 -2.000000e+000
         vertex -1.745577e-001 -2.439869e-001 -2.000000e+000
      endloop
   endfacet
   facet normal -6.014870e-001 -7.988826e-001 0.000000e+000
      outer loop
         vertex -1.919019e-001 -2.305941e-001 2.000000e+000
         vertex -1.745577e-001 -2.439869e-001 -2.000000e+000
         vertex -1.745577e-001 -2.439869e-001 2.000000e+000
      endloop
   endfacet
   facet normal -5.618860e-001 -8.272147e-001 0.000000e+000
      outer loop
         vertex -1.745577e-001 -2.439869e-001 2.000000e+000
         vertex -1.745577e-001 -2.439869e-001 -2.000000e+000
         vertex -1.562821e-001 -2.560779e-001 -2.000000e+000
      endloop
   endfacet
   facet normal -5.415677e-001 -8.406571e-001 0.000000e+000
      outer loop
         vertex -1.745577e-001 -2.439869e-001 2.000000e+000
         vertex -1.562821e-001 -2.560779e-001 -2.000000e+000
         vertex -1.562821e-001 -2.560779e-001 2.000000e+000
      endloop
   endfacet
   facet normal -5.000042e-001 -8.660230e-001 0.000000e+000
      outer loop
         vertex -1.562821e-001 -2.560779e-001 2.000000e+000
         vertex -1.562821e-001 -2.560779e-001 -2.000000e+000
         vertex -1.371727e-001 -2.668026e-001 -2.000000e+000
      endloop
   endfacet
   facet normal -4.787589e-001 -8.779464e-001 0.000000e+000
      outer loop
         vertex -1.562821e-001 -2.560779e-001 2.000000e+000
         vertex -1.371727e-001 -2.668026e-001 -2.000000e+000
         vertex -1.371727e-001 -2.668026e-001 2.000000e+000
      endloop
   endfacet
   facet normal -4.354547e-001 -9.002107e-001 0.000000e+000
      outer loop
         vertex -1.371727e-001 -2.668026e-001 2.000000e+000
         vertex -1.371727e-001 -2.668026e-001 -2.000000e+000
         vertex -1.173314e-001 -2.761039e-001 -2.000000e+000
      endloop
   endfacet
   facet normal -4.133957e-001 -9.105514e-001 0.000000e+000
      outer loop
         vertex -1.371727e-001 -2.668026e-001 2.000000e+000
         vertex -1.173314e-001 -2.761039e-001 -2.000000e+000
         vertex -1.173314e-001 -2.761039e-001 2.000000e+000
      endloop
   endfacet
   facet normal -3.685818e-001 -9.295953e-001 0.000000e+000
      outer loop
         vertex -1.173314e-001 -2.761039e-001 2.000000e+000
         vertex -1.173314e-001 -2.761039e-001 -2.000000e+000
         vertex -9.686412e-002 -2.839319e-001 -2.000000e+000
      endloop
   endfacet
   facet normal -3.458269e-001 -9.382983e-001 0.000000e+000
      outer loop
         vertex -1.173314e-001 -2.761039e-001 2.000000e+000
         vertex -9.686412e-002 -2.839319e-001 -2.000000e+000
         vertex -9.686412e-002 -2.839319e-001 2.000000e+000
      endloop
   endfacet
   facet normal -2.997425e-001 -9.540201e-001 0.000000e+000
      outer loop
         vertex -9.686412e-002 -2.839319e-001 2.000000e+000
         vertex -9.686412e-002 -2.839319e-001 -2.000000e+000
         vertex -7.588001e-002 -2.902451e-001 -2.000000e+000
      endloop
   endfacet
   facet normal -2.764130e-001 -9.610389e-001 0.000000e+000
      outer loop
         vertex -9.686412e-002 -2.839319e-001 2.000000e+000
         vertex -7.588001e-002 -2.902451e-001 -2.000000e+000
         vertex -7.588001e-002 -2.902451e-001 2.000000e+000
      endloop
   endfacet
   facet normal -2.293039e-001 -9.733549e-001 0.000000e+000
      outer loop
         vertex -7.588001e-002 -2.902451e-001 2.000000e+000
         vertex -7.588001e-002 -2.902451e-001 -2.000000e+000
         vertex -5.449105e-002 -2.950097e-001 -2.000000e+000
      endloop
   endfacet
   facet normal -2.055243e-001 -9.786521e-001 0.000000e+000
      outer loop
         vertex -7.588001e-002 -2.902451e-001 2.000000e+000
         vertex -5.449105e-002 -2.950097e-001 -2.000000e+000
         vertex -5.449105e-002 -2.950097e-001 2.000000e+000
      endloop
   endfacet
   facet normal -1.576418e-001 -9.874964e-001 0.000000e+000
      outer loop
         vertex -5.449105e-002 -2.950097e-001 2.000000e+000
         vertex -5.449105e-002 -2.950097e-001 -2.000000e+000
         vertex -3.281136e-002 -2.982003e-001 -2.000000e+000
      endloop
   endfacet
   facet normal -1.335389e-001 -9.910436e-001 0.000000e+000
      outer loop
         vertex -5.449105e-002 -2.950097e-001 2.000000e+000
         vertex -3.281136e-002 -2.982003e-001 -2.000000e+000
         vertex -3.281136e-002 -2.982003e-001 2.000000e+000
      endloop
   endfacet
   facet normal -8.513863e-002 -9.963691e-001 0.000000e+000
      outer loop
         vertex -3.281136e-002 -2.982003e-001 2.000000e+000
         vertex -3.281136e-002 -2.982003e-001 -2.000000e+000
         vertex -1.095661e-002 -2.997999e-001 -2.000000e+000
      endloop
   endfacet
   facet normal -6.084116e-002 -9.981475e-001 0.000000e+000
      outer loop
         vertex -3.281136e-002 -2.982003e-001 2.000000e+000
         vertex -1.095661e-002 -2.997999e-001 -2.000000e+000
         vertex -1.095661e-002 -2.997999e-001 2.000000e+000
      endloop
   endfacet
   facet normal -1.218123e-002 -9.999258e-001 0.000000e+000
      outer loop
         vertex -1.095661e-002 -2.997999e-001 2.000000e+000
         vertex -1.095661e-002 -2.997999e-001 -2.000000e+000
         vertex 1.095661e-002 -2.997999e-001 -2.000000e+000
      endloop
   endfacet
   facet normal 1.218123e-002 -9.999258e-001 0.000000e+000
      outer loop
         vertex -1.095661e-002 -2.997999e-001 2.000000e+000
         vertex 1.095661e-002 -2.997999e-001 -2.000000e+000
         vertex 1.095661e-002 -2.997999e-001 2.000000e+000
      endloop
   endfacet
   facet normal 6.084116e-002 -9.981475e-001 0.000000e+000
      outer loop
         vertex 1.095661e-002 -2.997999e-001 2.000000e+000
         vertex 1.095661e-002 -2.997999e-001 -2.000000e+000
         vertex 3.281136e-002 -2.982003e-001 -2.000000e+000
      endloop
   endfacet
   facet normal 8.513863e-002 -9.963691e-001 0.000000e+000
      outer loop
         vertex 1.095661e-002 -2.997999e-001 2.000000e+000
         vertex 3.281136e-002 -2.982003e-001 -2.000000e+000
         vertex 3.281136e-002 -2.982003e-001 2.000000e+000
      endloop
   endfacet
   facet normal 1.335389e-001 -9.910436e-001 0.000000e+000
      outer loop
         vertex 3.281136e-002 -2.982003e-001 2.000000e+000
         vertex 3.281136e-002 -2.982003e-001 -2.000000e+000
         vertex 5.449105e-002 -2.950097e-001 -2.000000e+000
      endloop
   endfacet
   facet normal 1.576418e-001 -9.874964e-001 0.000000e+000
      outer loop
         vertex 3.281136e-002 -2.982003e-001 2.000000e+000
         vertex 5.449105e-002 -2.950097e-001 -2.000000e+000
         vertex 5.449105e-002 -2.950097e-001 2.000000e+000
      endloop
   endfacet
   facet normal 2.055243e-001 -9.786521e-001 0.000000e+000
      outer loop
         vertex 5.449105e-002 -2.950097e-001 2.000000e+000
         vertex 5.449105e-002 -2.950097e-001 -2.000000e+000
         vertex 7.588001e-002 -2.902451e-001 -2.000000e+000
      endloop
   endfacet
   facet normal 2.293039e-001 -9.733549e-001 0.000000e+000
      outer loop
         vertex 5.449105e-002 -2.950097e-001 2.000000e+000
         vertex 7.588001e-002 -2.902451e-001 -2.000000e+000
         vertex 7.588001e-002 -2.902451e-001 2.000000e+000
      endloop
   endfacet
   facet normal 2.764130e-001 -9.610389e-001 0.000000e+000
      outer loop
         vertex 7.588001e-002 -2.902451e-001 2.000000e+000
         vertex 7.588001e-002 -2.902451e-001 -2.000000e+000
         vertex 9.686412e-002 -2.839319e-001 -2.000000e+000
      endloop
   endfacet
   facet normal 2.997425e-001 -9.540201e-001 0.000000e+000
      outer loop
         vertex 7.588001e-002 -2.902451e-001 2.000000e+000
         vertex 9.686412e-002 -2.839319e-001 -2.000000e+000
         vertex 9.686412e-002 -2.839319e-001 2.000000e+000
      endloop
   endfacet
   facet normal 3.458269e-001 -9.382983e-001 0.000000e+000
      outer loop
         vertex 9.686412e-002 -2.839319e-001 2.000000e+000
         vertex 9.686412e-002 -2.839319e-001 -2.000000e+000
         vertex 1.173314e-001 -2.761039e-001 -2.000000e+000
      endloop
   endfacet
   facet normal 3.685818e-001 -9.295953e-001 0.000000e+000
      outer loop
         vertex 9.686412e-002 -2.839319e-001 2.000000e+000
         vertex 1.173314e-001 -2.761039e-001 -2.000000e+000
         vertex 1.173314e-001 -2.761039e-001 2.000000e+000
      endloop
   endfacet
   facet normal 4.133957e-001 -9.105514e-001 0.000000e+000
      outer loop
         vertex 1.173314e-001 -2.761039e-001 2.000000e+000
         vertex 1.173314e-001 -2.761039e-001 -2.000000e+000
         vertex 1.371727e-001 -2.668026e-001 -2.000000e+000
      endloop
   endfacet
   facet normal 4.354547e-001 -9.002106e-001 0.000000e+000
      outer loop
         vertex 1.173314e-001 -2.761039e-001 2.000000e+000
         vertex 1.371727e-001 -2.668026e-001 -2.000000e+000
         vertex 1.371727e-001 -2.668026e-001 2.000000e+000
      endloop
   endfacet
   facet normal 4.787589e-001 -8.779464e-001 0.000000e+000
      outer loop
         vertex 1.371727e-001 -2.668026e-001 2.000000e+000
         vertex 1.371727e-001 -2.668026e-001 -2.000000e+000
         vertex 1.562821e-001 -2.560779e-001 -2.000000e+000
      endloop
   endfacet
   facet normal 5.000042e-001 -8.660230e-001 0.000000e+000
      outer loop
         vertex 1.371727e-001 -2.668026e-001 2.000000e+000
         vertex 1.562821e-001 -2.560779e-001 -2.000000e+000
         vertex 1.562821e-001 -2.560779e-001 2.000000e+000
      endloop
   endfacet
   facet normal 5.415677e-001 -8.406571e-001 0.000000e+000
      outer loop
         vertex 1.562821e-001 -2.560779e-001 2.000000e+000
         vertex 1.562821e-001 -2.560779e-001 -2.000000e+000
         vertex 1.745577e-001 -2.439869e-001 -2.000000e+000
      endloop
   endfacet
   facet normal 5.618860e-001 -8.272147e-001 0.000000e+000
      outer loop
         vertex 1.562821e-001 -2.560779e-001 2.000000e+000
         vertex 1.745577e-001 -2.439869e-001 -2.000000e+000
         vertex 1.745577e-001 -2.439869e-001 2.000000e+000
      endloop
   endfacet
   facet normal 6.014870e-001 -7.988826e-001 0.000000e+000
      outer loop
         vertex 1.745577e-001 -2.439869e-001 2.000000e+000
         vertex 1.745577e-001 -2.439869e-001 -2.000000e+000
         vertex 1.919019e-001 -2.305941e-001 -2.000000e+000
      endloop
   endfacet
   facet normal 6.207697e-001 -7.839929e-001 0.000000e+000
      outer loop
         vertex 1.745577e-001 -2.439869e-001 2.000000e+000
         vertex 1.919019e-001 -2.305941e-001 -2.000000e+000
         vertex 1.919019e-001 -2.305941e-001 2.000000e+000
      endloop
   endfacet
   facet normal 6.581970e-001 -7.528457e-001 0.000000e+000
      outer loop
         vertex 1.919019e-001 -2.305941e-001 2.000000e+000
         vertex 1.919019e-001 -2.305941e-001 -2.000000e+000
         vertex 2.082223e-001 -2.159710e-001 -2.000000e+000
      endloop
   endfacet
   facet normal 6.763415e-001 -7.365882e-001 0.000000e+000
      outer loop
         vertex 1.919019e-001 -2.305941e-001 2.000000e+000
         vertex 2.082223e-001 -2.159710e-001 -2.000000e+000
         vertex 2.082223e-001 -2.159710e-001 2.000000e+000
      endloop
   endfacet
   facet normal 7.113954e-001 -7.027920e-001 0.000000e+000
      outer loop
         vertex 2.082223e-001 -2.159710e-001 2.000000e+000
         vertex 2.082223e-001 -2.159710e-001 -2.000000e+000
         vertex 2.234317e-001 -2.001956e-001 -2.000000e+000
      endloop
   endfacet
   facet normal 7.283047e-001 -6.852534e-001 0.000000e+000
      outer loop
         vertex 2.082223e-001 -2.159710e-001 2.000000e+000
         vertex 2.234317e-001 -2.001956e-001 -2.000000e+000
         vertex 2.234317e-001 -2.001956e-001 2.000000e+000
      endloop
   endfacet
   facet normal 7.607981e-001 -6.489886e-001 0.000000e+000
      outer loop
         vertex 2.234317e-001 -2.001956e-001 2.000000e+000
         vertex 2.234317e-001 -2.001956e-001 -2.000000e+000
         vertex 2.374489e-001 -1.833521e-001 -2.000000e+000
      endloop
   endfacet
   facet normal 7.763821e-001 -6.302624e-001 0.000000e+000
      outer loop
         vertex 2.234317e-001 -2.001956e-001 2.000000e+000
         vertex 2.374489e-001 -1.833521e-001 -2.000000e+000
         vertex 2.374489e-001 -1.833521e-001 2.000000e+000
      endloop
   endfacet
   facet normal 8.061416e-001 -5.917226e-001 0.000000e+000
      outer loop
         vertex 2.374489e-001 -1.833521e-001 2.000000e+000
         vertex 2.374489e-001 -1.833521e-001 -2.000000e+000
         vertex 2.501993e-001 -1.655303e-001 -2.000000e+000
      endloop
   endfacet
   facet normal 8.203171e-001 -5.719089e-001 0.000000e+000
      outer loop
         vertex 2.374489e-001 -1.833521e-001 2.000000e+000
         vertex 2.501993e-001 -1.655303e-001 -2.000000e+000
         vertex 2.501993e-001 -1.655303e-001 2.000000e+000
      endloop
   endfacet
   facet normal 8.471841e-001 -5.312995e-001 0.000000e+000
      outer loop
         vertex 2.501993e-001 -1.655303e-001 2.000000e+000
         vertex 2.501993e-001 -1.655303e-001 -2.000000e+000
         vertex 2.616148e-001 -1.468254e-001 -2.000000e+000
      endloop
   endfacet
   facet normal 8.598754e-001 -5.105039e-001 0.000000e+000
      outer loop
         vertex 2.501993e-001 -1.655303e-001 2.000000e+000
         vertex 2.616148e-001 -1.468254e-001 -2.000000e+000
         vertex 2.616148e-001 -1.468254e-001 2.000000e+000
      endloop
   endfacet
   facet normal 8.837064e-001 -4.680417e-001 0.000000e+000
      outer loop
         vertex 2.616148e-001 -1.468254e-001 2.000000e+000
         vertex 2.616148e-001 -1.468254e-001 -2.000000e+000
         vertex 2.716345e-001 -1.273370e-001 -2.000000e+000
      endloop
   endfacet
   facet normal 8.948460e-001 -4.463751e-001 0.000000e+000
      outer loop
         vertex 2.616148e-001 -1.468254e-001 2.000000e+000
         vertex 2.716345e-001 -1.273370e-001 -2.000000e+000
         vertex 2.716345e-001 -1.273370e-001 2.000000e+000
      endloop
   endfacet
   facet normal 9.155138e-001 -4.022867e-001 0.000000e+000
      outer loop
         vertex 2.716345e-001 -1.273370e-001 2.000000e+000
         vertex 2.716345e-001 -1.273370e-001 -2.000000e+000
         vertex 2.802048e-001 -1.071693e-001 -2.000000e+000
      endloop
   endfacet
   facet normal 9.250420e-001 -3.798648e-001 0.000000e+000
      outer loop
         vertex 2.716345e-001 -1.273370e-001 2.000000e+000
         vertex 2.802048e-001 -1.071693e-001 -2.000000e+000
         vertex 2.802048e-001 -1.071693e-001 2.000000e+000
      endloop
   endfacet
   facet normal 9.424365e-001 -3.343852e-001 0.000000e+000
      outer loop
         vertex 2.802048e-001 -1.071693e-001 2.000000e+000
         vertex 2.802048e-001 -1.071693e-001 -2.000000e+000
         vertex 2.872802e-001 -8.642973e-002 -2.000000e+000
      endloop
   endfacet
   facet normal 9.503027e-001 -3.113276e-001 0.000000e+000
      outer loop
         vertex 2.802048e-001 -1.071693e-001 2.000000e+000
         vertex 2.872802e-001 -8.642973e-002 -2.000000e+000
         vertex 2.872802e-001 -8.642973e-002 2.000000e+000
      endloop
   endfacet
   facet normal 9.643309e-001 -2.646998e-001 0.000000e+000
      outer loop
         vertex 2.872802e-001 -8.642973e-002 2.000000e+000
         vertex 2.872802e-001 -8.642973e-002 -2.000000e+000
         vertex 2.928227e-001 -6.522905e-002 -2.000000e+000
      endloop
   endfacet
   facet normal 9.704929e-001 -2.411295e-001 0.000000e+000
      outer loop
         vertex 2.872802e-001 -8.642973e-002 2.000000e+000
         vertex 2.928227e-001 -6.522905e-002 -2.000000e+000
         vertex 2.928227e-001 -6.522905e-002 2.000000e+000
      endloop
   endfacet
   facet normal 9.810802e-001 -1.936020e-001 0.000000e+000
      outer loop
         vertex 2.928227e-001 -6.522905e-002 2.000000e+000
         vertex 2.928227e-001 -6.522905e-002 -2.000000e+000
         vertex 2.968030e-001 -4.368035e-002 -2.000000e+000
      endloop
   endfacet
   facet normal 9.855053e-001 -1.696448e-001 0.000000e+000
      outer loop
         vertex 2.928227e-001 -6.522905e-002 2.000000e+000
         vertex 2.968030e-001 -4.368035e-002 -2.000000e+000
         vertex 2.968030e-001 -4.368035e-002 2.000000e+000
      endloop
   endfacet
   facet normal 9.925949e-001 -1.214712e-001 0.000000e+000
      outer loop
         vertex 2.968030e-001 -4.368035e-002 2.000000e+000
         vertex 2.968030e-001 -4.368035e-002 -2.000000e+000
         vertex 2.991997e-001 -2.189859e-002 -2.000000e+000
      endloop
   endfacet
   facet normal 9.952595e-001 -9.725494e-002 0.000000e+000
      outer loop
         vertex 2.968030e-001 -4.368035e-002 2.000000e+000
         vertex 2.991997e-001 -2.189859e-002 -2.000000e+000
         vertex 2.991997e-001 -2.189859e-002 2.000000e+000
      endloop
   endfacet
   facet normal 9.988138e-001 -4.869241e-002 0.000000e+000
      outer loop
         vertex 2.991997e-001 -2.189859e-002 2.000000e+000
         vertex 2.991997e-001 -2.189859e-002 -2.000000e+000
         vertex 3.000000e-001 0.000000e+000 -2.000000e+000
      endloop
   endfacet
   facet normal 9.997036e-001 -2.434621e-002 0.000000e+000
      outer loop
         vertex 2.991997e-001 -2.189859e-002 2.000000e+000
         vertex 3.000000e-001 0.000000e+000 -2.000000e+000
         vertex 3.000000e-001 0.000000e+000 2.000000e+000
      endloop
   endfacet
   facet normal 9.997036e-001 2.434621e-002 0.000000e+000
      outer loop
         vertex 3.000000e-001 0.000000e+000 2.000000e+000
         vertex 3.000000e-001 0.000000e+000 -2.000000e+000
         vertex 2.991997e-001 2.189859e-002 -2.000000e+000
      endloop
   endfacet
   facet normal 0.000000e+000 0.000000e+000 -1.000000e+000
      outer loop
         vertex 3.000000e-001 0.000000e+000 -2.000000e+000
         vertex 2.991997e-001 -2.189859e-002 -2.000000e+000
         vertex 0.000000e+000 0.000000e+000 -2.000000e+000
      endloop
   endfacet
   facet normal 0.000000e+000 0.000000e+000 -1.000000e+000
      outer loop
         vertex 3.000000e-001 0.000000e+000 -2.000000e+000
         vertex 0.000000e+000 0.000000e+000 -2.000000e+000
         vertex 2.991997e-001 2.189859e-002 -2.000000e+000
      endloop
   endfacet
   facet normal 0.000000e+000 0.000000e+000 -1.000000e+000
      outer loop
         vertex 2.872802e-001 8.642973e-002 -2.000000e+000
         vertex 2.928227e-001 6.522905e-002 -2.000000e+000
         vertex 0.000000e+000 0.000000e+000 -2.000000e+000
      endloop
   endfacet
   facet normal 0.000000e+000 0.000000e+000 -1.000000e+000
      outer loop
         vertex 0.000000e+000 0.000000e+000 -2.000000e+000
         vertex 2.928227e-001 6.522905e-002 -2.000000e+000
         vertex 2.968030e-001 4.368035e-002 -2.000000e+000
      endloop
   endfacet
   facet normal 0.000000e+000 0.000000e+000 -1.000000e+000
      outer loop
         vertex 0.000000e+000 0.000000e+000 -2.000000e+000
         vertex 2.968030e-001 4.368035e-002 -2.000000e+000
         vertex 2.991997e-001 2.189859e-002 -2.000000e+000
      endloop
   endfacet
   facet normal 0.000000e+000 0.000000e+000 -1.000000e+000
      outer loop
         vertex 2.616148e-001 1.468254e-001 -2.000000e+000
         vertex 2.716345e-001 1.273370e-001 -2.000000e+000
         vertex 0.000000e+000 0.000000e+000 -2.000000e+000
      endloop
   endfacet
   facet normal 0.000000e+000 0.000000e+000 -1.000000e+000
      outer loop
         vertex 0.000000e+000 0.000000e+000 -2.000000e+000
         vertex 2.716345e-001 1.273370e-001 -2.000000e+000
         vertex 2.802048e-001 1.071693e-001 -2.000000e+000
      endloop
   endfacet
   facet normal 0.000000e+000 0.000000e+000 -1.000000e+000
      outer loop
         vertex 0.000000e+000 0.000000e+000 -2.000000e+000
         vertex 2.802048e-001 1.071693e-001 -2.000000e+000
         vertex 2.872802e-001 8.642973e-002 -2.000000e+000
      endloop
   endfacet
   facet normal 0.000000e+000 0.000000e+000 -1.000000e+000
      outer loop
         vertex 2.234317e-001 2.001956e-001 -2.000000e+000
         vertex 2.374489e-001 1.833521e-001 -2.000000e+000
         vertex 0.000000e+000 0.000000e+000 -2.000000e+000
      endloop
   endfacet
   facet normal 0.000000e+000 0.000000e+000 -1.000000e+000
      outer loop
         vertex 0.000000e+000 0.000000e+000 -2.000000e+000
         vertex 2.374489e-001 1.833521e-001 -2.000000e+000
         vertex 2.501993e-001 1.655303e-001 -2.000000e+000
      endloop
   endfacet
   facet normal 0.000000e+000 0.000000e+000 -1.000000e+000
      outer loop
         vertex 0.000000e+000 0.000000e+000 -2.000000e+000
         vertex 2.501993e-001 1.655303e-001 -2.000000e+000
         vertex 2.616148e-001 1.468254e-001 -2.000000e+000
      endloop
   endfacet
   facet normal 0.000000e+000 0.000000e+000 -1.000000e+000
      outer loop
         vertex 1.745577e-001 2.439869e-001 -2.000000e+000
         vertex 1.919019e-001 2.305941e-001 -2.000000e+000
         vertex 0.000000e+000 0.000000e+000 -2.000000e+000
      endloop
   endfacet
   facet normal 0.000000e+000 0.000000e+000 -1.000000e+000
      outer loop
         vertex 0.000000e+000 0.000000e+000 -2.000000e+000
         vertex 1.919019e-001 2.305941e-001 -2.000000e+000
         vertex 2.082223e-001 2.159710e-001 -2.000000e+000
      endloop
   endfacet
   facet normal 0.000000e+000 0.000000e+000 -1.000000e+000
      outer loop
         vertex 0.000000e+000 0.000000e+000 -2.000000e+000
         vertex 2.082223e-001 2.159710e-001 -2.000000e+000
         vertex 2.234317e-001 2.001956e-001 -2.000000e+000
      endloop
   endfacet
   facet normal 0.000000e+000 0.000000e+000 -1.000000e+000
      outer loop
         vertex 1.173314e-001 2.761039e-001 -2.000000e+000
         vertex 1.371727e-001 2.668026e-001 -2.000000e+000
         vertex 0.000000e+000 0.000000e+000 -2.000000e+000
      endloop
   endfacet
   facet normal 0.000000e+000 0.000000e+000 -1.000000e+000
      outer loop
         vertex 0.000000e+000 0.000000e+000 -2.000000e+000
         vertex 1.371727e-001 2.668026e-001 -2.000000e+000
         vertex 1.562821e-001 2.560779e-001 -2.000000e+000
      endloop
   endfacet
   facet normal 0.000000e+000 0.000000e+000 -1.000000e+000
      outer loop
         vertex 0.000000e+000 0.000000e+000 -2.000000e+000
         vertex 1.562821e-001 2.560779e-001 -2.000000e+000
         vertex 1.745577e-001 2.439869e-001 -2.000000e+000
      endloop
   endfacet
   facet normal 0.000000e+000 0.000000e+000 -1.000000e+000
      outer loop
         vertex 5.449105e-002 2.950097e-001 -2.000000e+000
         vertex 7.588001e-002 2.902451e-001 -2.000000e+000
         vertex 0.000000e+000 0.000000e+000 -2.000000e+000
      endloop
   endfacet
   facet normal 0.000000e+000 0.000000e+000 -1.000000e+000
      outer loop
         vertex 0.000000e+000 0.000000e+000 -2.000000e+000
         vertex 7.588001e-002 2.902451e-001 -2.000000e+000
         vertex 9.686412e-002 2.839319e-001 -2.000000e+000
      endloop
   endfacet
   facet normal 0.000000e+000 0.000000e+000 -1.000000e+000
      outer loop
         vertex 0.000000e+000 0.000000e+000 -2.000000e+000
         vertex 9.686412e-002 2.839319e-001 -2.000000e+000
         vertex 1.173314e-001 2.761039e-001 -2.000000e+000
      endloop
   endfacet
   facet normal 0.000000e+000 0.000000e+000 -1.000000e+000
      outer loop
         vertex -1.095661e-002 2.997999e-001 -2.000000e+000
         vertex 1.095661e-002 2.997999e-001 -2.000000e+000
         vertex 0.000000e+000 0.000000e+000 -2.000000e+000
      endloop
   endfacet
   facet normal 0.000000e+000 0.000000e+000 -1.000000e+000
      outer loop
         vertex 0.000000e+000 0.000000e+000 -2.000000e+000
         vertex 1.095661e-002 2.997999e-001 -2.000000e+000
         vertex 3.281136e-002 2.982003e-001 -2.000000e+000
      endloop
   endfacet
   facet normal 0.000000e+000 0.000000e+000 -1.000000e+000
      outer loop
         vertex 0.000000e+000 0.000000e+000 -2.000000e+000
         vertex 3.281136e-002 2.982003e-001 -2.000000e+000
         vertex 5.449105e-002 2.950097e-001 -2.000000e+000
      endloop
   endfacet
   facet normal 0.000000e+000 0.000000e+000 -1.000000e+000
      outer loop
         vertex -7.588001e-002 2.902451e-001 -2.000000e+000
         vertex -5.449105e-002 2.950097e-001 -2.000000e+000
         vertex 0.000000e+000 0.000000e+000 -2.000000e+000
      endloop
   endfacet
   facet normal 0.000000e+000 0.000000e+000 -1.000000e+000
      outer loop
         vertex 0.000000e+000 0.000000e+000 -2.000000e+000
         vertex -5.449105e-002 2.950097e-001 -2.000000e+000
         vertex -3.281136e-002 2.982003e-001 -2.000000e+000
      endloop
   endfacet
   facet normal 0.000000e+000 0.000000e+000 -1.000000e+000
      outer loop
         vertex 0.000000e+000 0.000000e+000 -2.000000e+000
         vertex -3.281136e-002 2.982003e-001 -2.000000e+000
         vertex -1.095661e-002 2.997999e-001 -2.000000e+000
      endloop
   endfacet
   facet normal 0.000000e+000 0.000000e+000 -1.000000e+000
      outer loop
         vertex -1.371727e-001 2.668026e-001 -2.000000e+000
         vertex -1.173314e-001 2.761039e-001 -2.000000e+000
         vertex 0.000000e+000 0.000000e+000 -2.000000e+000
      endloop
   endfacet
   facet normal 0.000000e+000 0.000000e+000 -1.000000e+000
      outer loop
         vertex 0.000000e+000 0.000000e+000 -2.000000e+000
         vertex -1.173314e-001 2.761039e-001 -2.000000e+000
         vertex -9.686412e-002 2.839319e-001 -2.000000e+000
      endloop
   endfacet
   facet normal 0.000000e+000 0.000000e+000 -1.000000e+000
      outer loop
         vertex 0.000000e+000 0.000000e+000 -2.000000e+000
         vertex -9.686412e-002 2.839319e-001 -2.000000e+000
         vertex -7.588001e-002 2.902451e-001 -2.000000e+000
      endloop
   endfacet
   facet normal 0.000000e+000 0.000000e+000 -1.000000e+000
      outer loop
         vertex -1.919019e-001 2.305941e-001 -2.000000e+000
         vertex -1.745577e-001 2.439869e-001 -2.000000e+000
         vertex 0.000000e+000 0.000000e+000 -2.000000e+000
      endloop
   endfacet
   facet normal 0.000000e+000 0.000000e+000 -1.000000e+000
      outer loop
         vertex 0.000000e+000 0.000000e+000 -2.000000e+000
         vertex -1.745577e-001 2.439869e-001 -2.000000e+000
         vertex -1.562821e-001 2.560779e-001 -2.000000e+000
      endloop
   endfacet
   facet normal 0.000000e+000 0.000000e+000 -1.000000e+000
      outer loop
         vertex 0.000000e+000 0.000000e+000 -2.000000e+000
         vertex -1.562821e-001 2.560779e-001 -2.000000e+000
         vertex -1.371727e-001 2.668026e-001 -2.000000e+000
      endloop
   endfacet
   facet normal 0.000000e+000 0.000000e+000 -1.000000e+000
      outer loop
         vertex -2.374489e-001 1.833521e-001 -2.000000e+000
         vertex -2.234317e-001 2.001956e-001 -2.000000e+000
         vertex 0.000000e+000 0.000000e+000 -2.000000e+000
      endloop
   endfacet
   facet normal 0.000000e+000 0.000000e+000 -1.000000e+000
      outer loop
         vertex 0.000000e+000 0.000000e+000 -2.000000e+000
         vertex -2.234317e-001 2.001956e-001 -2.000000e+000
         vertex -2.082223e-001 2.159710e-001 -2.000000e+000
      endloop
   endfacet
   facet normal 0.000000e+000 0.000000e+000 -1.000000e+000
      outer loop
         vertex 0.000000e+000 0.000000e+000 -2.000000e+000
         vertex -2.082223e-001 2.159710e-001 -2.000000e+000
         vertex -1.919019e-001 2.305941e-001 -2.000000e+000
      endloop
   endfacet
   facet normal 0.000000e+000 0.000000e+000 -1.000000e+000
      outer loop
         vertex -2.716345e-001 1.273370e-001 -2.000000e+000
         vertex -2.616148e-001 1.468254e-001 -2.000000e+000
         vertex 0.000000e+000 0.000000e+000 -2.000000e+000
      endloop
   endfacet
   facet normal 0.000000e+000 0.000000e+000 -1.000000e+000
      outer loop
         vertex 0.000000e+000 0.000000e+000 -2.000000e+000
         vertex -2.616148e-001 1.468254e-001 -2.000000e+000
         vertex -2.501993e-001 1.655303e-001 -2.000000e+000
      endloop
   endfacet
   facet normal 0.000000e+000 0.000000e+000 -1.000000e+000
      outer loop
         vertex 0.000000e+000 0.000000e+000 -2.000000e+000
         vertex -2.501993e-001 1.655303e-001 -2.000000e+000
         vertex -2.374489e-001 1.833521e-001 -2.000000e+000
      endloop
   endfacet
   facet normal 0.000000e+000 0.000000e+000 -1.000000e+000
      outer loop
         vertex -2.928227e-001 6.522905e-002 -2.000000e+000
         vertex -2.872802e-001 8.642973e-002 -2.000000e+000
         vertex 0.000000e+000 0.000000e+000 -2.000000e+000
      endloop
   endfacet
   facet normal 0.000000e+000 0.000000e+000 -1.000000e+000
      outer loop
         vertex 0.000000e+000 0.000000e+000 -2.000000e+000
         vertex -2.872802e-001 8.642973e-002 -2.000000e+000
         vertex -2.802048e-001 1.071693e-001 -2.000000e+000
      endloop
   endfacet
   facet normal 0.000000e+000 0.000000e+000 -1.000000e+000
      outer loop
         vertex 0.000000e+000 0.000000e+000 -2.000000e+000
         vertex -2.802048e-001 1.071693e-001 -2.000000e+000
         vertex -2.716345e-001 1.273370e-001 -2.000000e+000
      endloop
   endfacet
   facet normal 0.000000e+000 0.000000e+000 -1.000000e+000
      outer loop
         vertex -3.000000e-001 3.673941e-017 -2.000000e+000
         vertex -2.991997e-001 2.189859e-002 -2.000000e+000
         vertex 0.000000e+000 0.000000e+000 -2.000000e+000
      endloop
   endfacet
   facet normal 0.000000e+000 0.000000e+000 -1.000000e+000
      outer loop
         vertex 0.000000e+000 0.000000e+000 -2.000000e+000
         vertex -2.991997e-001 2.189859e-002 -2.000000e+000
         vertex -2.968030e-001 4.368035e-002 -2.000000e+000
      endloop
   endfacet
   facet normal 0.000000e+000 0.000000e+000 -1.000000e+000
      outer loop
         vertex 0.000000e+000 0.000000e+000 -2.000000e+000
         vertex -2.968030e-001 4.368035e-002 -2.000000e+000
         vertex -2.928227e-001 6.522905e-002 -2.000000e+000
      endloop
   endfacet
   facet normal 0.000000e+000 0.000000e+000 -1.000000e+000
      outer loop
         vertex -2.928227e-001 -6.522905e-002 -2.000000e+000
         vertex -2.968030e-001 -4.368035e-002 -2.000000e+000
         vertex 0.000000e+000 0.000000e+000 -2.000000e+000
      endloop
   endfacet
   facet normal 0.000000e+000 0.000000e+000 -1.000000e+000
      outer loop
         vertex 0.000000e+000 0.000000e+000 -2.000000e+000
         vertex -2.968030e-001 -4.368035e-002 -2.000000e+000
         vertex -2.991997e-001 -2.189859e-002 -2.000000e+000
      endloop
   endfacet
   facet normal 0.000000e+000 0.000000e+000 -1.000000e+000
      outer loop
         vertex 0.000000e+000 0.000000e+000 -2.000000e+000
         vertex -2.991997e-001 -2.189859e-002 -2.000000e+000
         vertex -3.000000e-001 3.673941e-017 -2.000000e+000
      endloop
   endfacet
   facet normal 0.000000e+000 0.000000e+000 -1.000000e+000
      outer loop
         vertex -2.716345e-001 -1.273370e-001 -2.000000e+000
         vertex -2.802048e-001 -1.071693e-001 -2.000000e+000
         vertex 0.000000e+000 0.000000e+000 -2.000000e+000
      endloop
   endfacet
   facet normal 0.000000e+000 0.000000e+000 -1.000000e+000
      outer loop
         vertex 0.000000e+000 0.000000e+000 -2.000000e+000
         vertex -2.802048e-001 -1.071693e-001 -2.000000e+000
         vertex -2.872802e-001 -8.642973e-002 -2.000000e+000
      endloop
   endfacet
   facet normal 0.000000e+000 0.000000e+000 -1.000000e+000
      outer loop
         vertex 0.000000e+000 0.000000e+000 -2.000000e+000
         vertex -2.872802e-001 -8.642973e-002 -2.000000e+000
         vertex -2.928227e-001 -6.522905e-002 -2.000000e+000
      endloop
   endfacet
   facet normal 0.000000e+000 0.000000e+000 -1.000000e+000
      outer loop
         vertex -2.374489e-001 -1.833521e-001 -2.000000e+000
         vertex -2.501993e-001 -1.655303e-001 -2.000000e+000
         vertex 0.000000e+000 0.000000e+000 -2.000000e+000
      endloop
   endfacet
   facet normal 0.000000e+000 0.000000e+000 -1.000000e+000
      outer loop
         vertex 0.000000e+000 0.000000e+000 -2.000000e+000
         vertex -2.501993e-001 -1.655303e-001 -2.000000e+000
         vertex -2.616148e-001 -1.468254e-001 -2.000000e+000
      endloop
   endfacet
   facet normal 0.000000e+000 0.000000e+000 -1.000000e+000
      outer loop
         vertex 0.000000e+000 0.000000e+000 -2.000000e+000
         vertex -2.616148e-001 -1.468254e-001 -2.000000e+000
         vertex -2.716345e-001 -1.273370e-001 -2.000000e+000
      endloop
   endfacet
   facet normal 0.000000e+000 0.000000e+000 -1.000000e+000
      outer loop
         vertex -1.919019e-001 -2.305941e-001 -2.000000e+000
         vertex -2.082223e-001 -2.159710e-001 -2.000000e+000
         vertex 0.000000e+000 0.000000e+000 -2.000000e+000
      endloop
   endfacet
   facet normal 0.000000e+000 0.000000e+000 -1.000000e+000
      outer loop
         vertex 0.000000e+000 0.000000e+000 -2.000000e+000
         vertex -2.082223e-001 -2.159710e-001 -2.000000e+000
         vertex -2.234317e-001 -2.001956e-001 -2.000000e+000
      endloop
   endfacet
   facet normal 0.000000e+000 0.000000e+000 -1.000000e+000
      outer loop
         vertex 0.000000e+000 0.000000e+000 -2.000000e+000
         vertex -2.234317e-001 -2.001956e-001 -2.000000e+000
         vertex -2.374489e-001 -1.833521e-001 -2.000000e+000
      endloop
   endfacet
   facet normal 0.000000e+000 0.000000e+000 -1.000000e+000
      outer loop
         vertex -1.371727e-001 -2.668026e-001 -2.000000e+000
         vertex -1.562821e-001 -2.560779e-001 -2.000000e+000
         vertex 0.000000e+000 0.000000e+000 -2.000000e+000
      endloop
   endfacet
   facet normal 0.000000e+000 0.000000e+000 -1.000000e+000
      outer loop
         vertex 0.000000e+000 0.000000e+000 -2.000000e+000
         vertex -1.562821e-001 -2.560779e-001 -2.000000e+000
         vertex -1.745577e-001 -2.439869e-001 -2.000000e+000
      endloop
   endfacet
   facet normal 0.000000e+000 0.000000e+000 -1.000000e+000
      outer loop
         vertex 0.000000e+000 0.000000e+000 -2.000000e+000
         vertex -1.745577e-001 -2.439869e-001 -2.000000e+000
         vertex -1.919019e-001 -2.305941e-001 -2.000000e+000
      endloop
   endfacet
   facet normal 0.000000e+000 0.000000e+000 -1.000000e+000
      outer loop
         vertex -7.588001e-002 -2.902451e-001 -2.000000e+000
         vertex -9.686412e-002 -2.839319e-001 -2.000000e+000
         vertex 0.000000e+000 0.000000e+000 -2.000000e+000
      endloop
   endfacet
   facet normal 0.000000e+000 0.000000e+000 -1.000000e+000
      outer loop
         vertex 0.000000e+000 0.000000e+000 -2.000000e+000
         vertex -9.686412e-002 -2.839319e-001 -2.000000e+000
         vertex -1.173314e-001 -2.761039e-001 -2.000000e+000
      endloop
   endfacet
   facet normal 0.000000e+000 0.000000e+000 -1.000000e+000
      outer loop
         vertex 0.000000e+000 0.000000e+000 -2.000000e+000
         vertex -1.173314e-001 -2.761039e-001 -2.000000e+000
         vertex -1.371727e-001 -2.668026e-001 -2.000000e+000
      endloop
   endfacet
   facet normal 0.000000e+000 0.000000e+000 -1.000000e+000
      outer loop
         vertex -1.095661e-002 -2.997999e-001 -2.000000e+000
         vertex -3.281136e-002 -2.982003e-001 -2.000000e+000
         vertex 0.000000e+000 0.000000e+000 -2.000000e+000
      endloop
   endfacet
   facet normal 0.000000e+000 0.000000e+000 -1.000000e+000
      outer loop
         vertex 0.000000e+000 0.000000e+000 -2.000000e+000
         vertex -3.281136e-002 -2.982003e-001 -2.000000e+000
         vertex -5.449105e-002 -2.950097e-001 -2.000000e+000
      endloop
   endfacet
   facet normal 0.000000e+000 0.000000e+000 -1.000000e+000
      outer loop
         vertex 0.000000e+000 0.000000e+000 -2.000000e+000
         vertex -5.449105e-002 -2.950097e-001 -2.000000e+000
         vertex -7.588001e-002 -2.902451e-001 -2.000000e+000
      endloop
   endfacet
   facet normal 0.000000e+000 0.000000e+000 -1.000000e+000
      outer loop
         vertex 5.449105e-002 -2.950097e-001 -2.000000e+000
         vertex 3.281136e-002 -2.982003e-001 -2.000000e+000
         vertex 0.000000e+000 0.000000e+000 -2.000000e+000
      endloop
   endfacet
   facet normal 0.000000e+000 0.000000e+000 -1.000000e+000
      outer loop
         vertex 0.000000e+000 0.000000e+000 -2.000000e+000
         vertex 3.281136e-002 -2.982003e-001 -2.000000e+000
         vertex 1.095661e-002 -2.997999e-001 -2.000000e+000
      endloop
   endfacet
   facet normal 0.000000e+000 0.000000e+000 -1.000000e+000
      outer loop
         vertex 0.000000e+000 0.000000e+000 -2.000000e+000
         vertex 1.095661e-002 -2.997999e-001 -2.000000e+000
         vertex -1.095661e-002 -2.997999e-001 -2.000000e+000
      endloop
   endfacet
   facet normal 0.000000e+000 0.000000e+000 -1.000000e+000
      outer loop
         vertex 1.173314e-001 -2.761039e-001 -2.000000e+000
         vertex 9.686412e-002 -2.839319e-001 -2.000000e+000
         vertex 0.000000e+000 0.000000e+000 -2.000000e+000
      endloop
   endfacet
   facet normal 0.000000e+000 0.000000e+000 -1.000000e+000
      outer loop
         vertex 0.000000e+000 0.000000e+000 -2.000000e+000
         vertex 9.686412e-002 -2.839319e-001 -2.000000e+000
         vertex 7.588001e-002 -2.902451e-001 -2.000000e+000
      endloop
   endfacet
   facet normal 0.000000e+000 0.000000e+000 -1.000000e+000
      outer loop
         vertex 0.000000e+000 0.000000e+000 -2.000000e+000
         vertex 7.588001e-002 -2.902451e-001 -2.000000e+000
         vertex 5.449105e-002 -2.950097e-001 -2.000000e+000
      endloop
   endfacet
   facet normal 0.000000e+000 0.000000e+000 -1.000000e+000
      outer loop
         vertex 1.745577e-001 -2.439869e-001 -2.000000e+000
         vertex 1.562821e-001 -2.560779e-001 -2.000000e+000
         vertex 0.000000e+000 0.000000e+000 -2.000000e+000
      endloop
   endfacet
   facet normal 0.000000e+000 0.000000e+000 -1.000000e+000
      outer loop
         vertex 0.000000e+000 0.000000e+000 -2.000000e+000
         vertex 1.562821e-001 -2.560779e-001 -2.000000e+000
         vertex 1.371727e-001 -2.668026e-001 -2.000000e+000
      endloop
   endfacet
   facet normal 0.000000e+000 0.000000e+000 -1.000000e+000
      outer loop
         vertex 0.000000e+000 0.000000e+000 -2.000000e+000
         vertex 1.371727e-001 -2.668026e-001 -2.000000e+000
         vertex 1.173314e-001 -2.761039e-001 -2.000000e+000
      endloop
   endfacet
   facet normal 0.000000e+000 0.000000e+000 -1.000000e+000
      outer loop
         vertex 2.234317e-001 -2.001956e-001 -2.000000e+000
         vertex 2.082223e-001 -2.159710e-001 -2.000000e+000
         vertex 0.000000e+000 0.000000e+000 -2.000000e+000
      endloop
   endfacet
   facet normal 0.000000e+000 0.000000e+000 -1.000000e+000
      outer loop
         vertex 0.000000e+000 0.000000e+000 -2.000000e+000
         vertex 2.082223e-001 -2.159710e-001 -2.000000e+000
         vertex 1.919019e-001 -2.305941e-001 -2.000000e+000
      endloop
   endfacet
   facet normal 0.000000e+000 0.000000e+000 -1.000000e+000
      outer loop
         vertex 0.000000e+000 0.000000e+000 -2.000000e+000
         vertex 1.919019e-001 -2.305941e-001 -2.000000e+000
         vertex 1.745577e-001 -2.439869e-001 -2.000000e+000
      endloop
   endfacet
   facet normal 0.000000e+000 0.000000e+000 -1.000000e+000
      outer loop
         vertex 2.616148e-001 -1.468254e-001 -2.000000e+000
         vertex 2.501993e-001 -1.655303e-001 -2.000000e+000
         vertex 0.000000e+000 0.000000e+000 -2.000000e+000
      endloop
   endfacet
   facet normal 0.000000e+000 0.000000e+000 -1.000000e+000
      outer loop
         vertex 0.000000e+000 0.000000e+000 -2.000000e+000
         vertex 2.501993e-001 -1.655303e-001 -2.000000e+000
         vertex 2.374489e-001 -1.833521e-001 -2.000000e+000
      endloop
   endfacet
   facet normal 0.000000e+000 0.000000e+000 -1.000000e+000
      outer loop
         vertex 0.000000e+000 0.000000e+000 -2.000000e+000
         vertex 2.374489e-001 -1.833521e-001 -2.000000e+000
         vertex 2.234317e-001 -2.001956e-001 -2.000000e+000
      endloop
   endfacet
   facet normal 0.000000e+000 0.000000e+000 -1.000000e+000
      outer loop
         vertex 2.872802e-001 -8.642973e-002 -2.000000e+000
         vertex 2.802048e-001 -1.071693e-001 -2.000000e+000
         vertex 0.000000e+000 0.000000e+000 -2.000000e+000
      endloop
   endfacet
   facet normal 0.000000e+000 0.000000e+000 -1.000000e+000
      outer loop
         vertex 0.000000e+000 0.000000e+000 -2.000000e+000
         vertex 2.802048e-001 -1.071693e-001 -2.000000e+000
         vertex 2.716345e-001 -1.273370e-001 -2.000000e+000
      endloop
   endfacet
   facet normal 0.000000e+000 0.000000e+000 -1.000000e+000
      outer loop
         vertex 0.000000e+000 0.000000e+000 -2.000000e+000
         vertex 2.716345e-001 -1.273370e-001 -2.000000e+000
         vertex 2.616148e-001 -1.468254e-001 -2.000000e+000
      endloop
   endfacet
   facet normal 0.000000e+000 0.000000e+000 -1.000000e+000
      outer loop
         vertex 2.991997e-001 -2.189859e-002 -2.000000e+000
         vertex 2.968030e-001 -4.368035e-002 -2.000000e+000
         vertex 0.000000e+000 0.000000e+000 -2.000000e+000
      endloop
   endfacet
   facet normal 0.000000e+000 0.000000e+000 -1.000000e+000
      outer loop
         vertex 0.000000e+000 0.000000e+000 -2.000000e+000
         vertex 2.968030e-001 -4.368035e-002 -2.000000e+000
         vertex 2.928227e-001 -6.522905e-002 -2.000000e+000
      endloop
   endfacet
   facet normal 0.000000e+000 0.000000e+000 -1.000000e+000
      outer loop
         vertex 0.000000e+000 0.000000e+000 -2.000000e+000
         vertex 2.928227e-001 -6.522905e-002 -2.000000e+000
         vertex 2.872802e-001 -8.642973e-002 -2.000000e+000
      endloop
   endfacet
   facet normal 0.000000e+000 0.000000e+000 1.000000e+000
      outer loop
         vertex 3.000000e-001 -7.347881e-017 2.000000e+000
         vertex 2.991997e-001 2.189859e-002 2.000000e+000
         vertex 0.000000e+000 0.000000e+000 2.000000e+000
      endloop
   endfacet
   facet normal 0.000000e+000 0.000000e+000 1.000000e+000
      outer loop
         vertex 3.000000e-001 -7.347881e-017 2.000000e+000
         vertex 0.000000e+000 0.000000e+000 2.000000e+000
         vertex 2.991997e-001 -2.189859e-002 2.000000e+000
      endloop
   endfacet
   facet normal 0.000000e+000 0.000000e+000 1.000000e+000
      outer loop
         vertex 2.872802e-001 -8.642973e-002 2.000000e+000
         vertex 2.928227e-001 -6.522905e-002 2.000000e+000
         vertex 0.000000e+000 0.000000e+000 2.000000e+000
      endloop
   endfacet
   facet normal 0.000000e+000 0.000000e+000 1.000000e+000
      outer loop
         vertex 0.000000e+000 0.000000e+000 2.000000e+000
         vertex 2.928227e-001 -6.522905e-002 2.000000e+000
         vertex 2.968030e-001 -4.368035e-002 2.000000e+000
      endloop
   endfacet
   facet normal 0.000000e+000 0.000000e+000 1.000000e+000
      outer loop
         vertex 0.000000e+000 0.000000e+000 2.000000e+000
         vertex 2.968030e-001 -4.368035e-002 2.000000e+000
         vertex 2.991997e-001 -2.189859e-002 2.000000e+000
      endloop
   endfacet
   facet normal 0.000000e+000 0.000000e+000 1.000000e+000
      outer loop
         vertex 2.616148e-001 -1.468254e-001 2.000000e+000
         vertex 2.716345e-001 -1.273370e-001 2.000000e+000
         vertex 0.000000e+000 0.000000e+000 2.000000e+000
      endloop
   endfacet
   facet normal 0.000000e+000 0.000000e+000 1.000000e+000
      outer loop
         vertex 0.000000e+000 0.000000e+000 2.000000e+000
         vertex 2.716345e-001 -1.273370e-001 2.000000e+000
         vertex 2.802048e-001 -1.071693e-001 2.000000e+000
      endloop
   endfacet
   facet normal 0.000000e+000 0.000000e+000 1.000000e+000
      outer loop
         vertex 0.000000e+000 0.000000e+000 2.000000e+000
         vertex 2.802048e-001 -1.071693e-001 2.000000e+000
         vertex 2.872802e-001 -8.642973e-002 2.000000e+000
      endloop
   endfacet
   facet normal 0.000000e+000 0.000000e+000 1.000000e+000
      outer loop
         vertex 2.234317e-001 -2.001956e-001 2.000000e+000
         vertex 2.374489e-001 -1.833521e-001 2.000000e+000
         vertex 0.000000e+000 0.000000e+000 2.000000e+000
      endloop
   endfacet
   facet normal 0.000000e+000 0.000000e+000 1.000000e+000
      outer loop
         vertex 0.000000e+000 0.000000e+000 2.000000e+000
         vertex 2.374489e-001 -1.833521e-001 2.000000e+000
         vertex 2.501993e-001 -1.655303e-001 2.000000e+000
      endloop
   endfacet
   facet normal 0.000000e+000 0.000000e+000 1.000000e+000
      outer loop
         vertex 0.000000e+000 0.000000e+000 2.000000e+000
         vertex 2.501993e-001 -1.655303e-001 2.000000e+000
         vertex 2.616148e-001 -1.468254e-001 2.000000e+000
      endloop
   endfacet
   facet normal 0.000000e+000 0.000000e+000 1.000000e+000
      outer loop
         vertex 1.745577e-001 -2.439869e-001 2.000000e+000
         vertex 1.919019e-001 -2.305941e-001 2.000000e+000
         vertex 0.000000e+000 0.000000e+000 2.000000e+000
      endloop
   endfacet
   facet normal 0.000000e+000 0.000000e+000 1.000000e+000
      outer loop
         vertex 0.000000e+000 0.000000e+000 2.000000e+000
         vertex 1.919019e-001 -2.305941e-001 2.000000e+000
         vertex 2.082223e-001 -2.159710e-001 2.000000e+000
      endloop
   endfacet
   facet normal 0.000000e+000 0.000000e+000 1.000000e+000
      outer loop
         vertex 0.000000e+000 0.000000e+000 2.000000e+000
         vertex 2.082223e-001 -2.159710e-001 2.000000e+000
         vertex 2.234317e-001 -2.001956e-001 2.000000e+000
      endloop
   endfacet
   facet normal 0.000000e+000 0.000000e+000 1.000000e+000
      outer loop
         vertex 1.173314e-001 -2.761039e-001 2.000000e+000
         vertex 1.371727e-001 -2.668026e-001 2.000000e+000
         vertex 0.000000e+000 0.000000e+000 2.000000e+000
      endloop
   endfacet
   facet normal 0.000000e+000 0.000000e+000 1.000000e+000
      outer loop
         vertex 0.000000e+000 0.000000e+000 2.000000e+000
         vertex 1.371727e-001 -2.668026e-001 2.000000e+000
         vertex 1.562821e-001 -2.560779e-001 2.000000e+000
      endloop
   endfacet
   facet normal 0.000000e+000 0.000000e+000 1.000000e+000
      outer loop
         vertex 0.000000e+000 0.000000e+000 2.000000e+000
         vertex 1.562821e-001 -2.560779e-001 2.000000e+000
         vertex 1.745577e-001 -2.439869e-001 2.000000e+000
      endloop
   endfacet
   facet normal 0.000000e+000 0.000000e+000 1.000000e+000
      outer loop
         vertex 5.449105e-002 -2.950097e-001 2.000000e+000
         vertex 7.588001e-002 -2.902451e-001 2.000000e+000
         vertex 0.000000e+000 0.000000e+000 2.000000e+000
      endloop
   endfacet
   facet normal 0.000000e+000 0.000000e+000 1.000000e+000
      outer loop
         vertex 0.000000e+000 0.000000e+000 2.000000e+000
         vertex 7.588001e-002 -2.902451e-001 2.000000e+000
         vertex 9.686412e-002 -2.839319e-001 2.000000e+000
      endloop
   endfacet
   facet normal 0.000000e+000 0.000000e+000 1.000000e+000
      outer loop
         vertex 0.000000e+000 0.000000e+000 2.000000e+000
         vertex 9.686412e-002 -2.839319e-001 2.000000e+000
         vertex 1.173314e-001 -2.761039e-001 2.000000e+000
      endloop
   endfacet
   facet normal 0.000000e+000 0.000000e+000 1.000000e+000
      outer loop
         vertex -1.095661e-002 -2.997999e-001 2.000000e+000
         vertex 1.095661e-002 -2.997999e-001 2.000000e+000
         vertex 0.000000e+000 0.000000e+000 2.000000e+000
      endloop
   endfacet
   facet normal 0.000000e+000 0.000000e+000 1.000000e+000
      outer loop
         vertex 0.000000e+000 0.000000e+000 2.000000e+000
         vertex 1.095661e-002 -2.997999e-001 2.000000e+000
         vertex 3.281136e-002 -2.982003e-001 2.000000e+000
      endloop
   endfacet
   facet normal 0.000000e+000 0.000000e+000 1.000000e+000
      outer loop
         vertex 0.000000e+000 0.000000e+000 2.000000e+000
         vertex 3.281136e-002 -2.982003e-001 2.000000e+000
         vertex 5.449105e-002 -2.950097e-001 2.000000e+000
      endloop
   endfacet
   facet normal 0.000000e+000 0.000000e+000 1.000000e+000
      outer loop
         vertex -7.588001e-002 -2.902451e-001 2.000000e+000
         vertex -5.449105e-002 -2.950097e-001 2.000000e+000
         vertex 0.000000e+000 0.000000e+000 2.000000e+000
      endloop
   endfacet
   facet normal 0.000000e+000 0.000000e+000 1.000000e+000
      outer loop
         vertex 0.000000e+000 0.000000e+000 2.000000e+000
         vertex -5.449105e-002 -2.950097e-001 2.000000e+000
         vertex -3.281136e-002 -2.982003e-001 2.000000e+000
      endloop
   endfacet
   facet normal 0.000000e+000 0.000000e+000 1.000000e+000
      outer loop
         vertex 0.000000e+000 0.000000e+000 2.000000e+000
         vertex -3.281136e-002 -2.982003e-001 2.000000e+000
         vertex -1.095661e-002 -2.997999e-001 2.000000e+000
      endloop
   endfacet
   facet normal 0.000000e+000 0.000000e+000 1.000000e+000
      outer loop
         vertex -1.371727e-001 -2.668026e-001 2.000000e+000
         vertex -1.173314e-001 -2.761039e-001 2.000000e+000
         vertex 0.000000e+000 0.000000e+000 2.000000e+000
      endloop
   endfacet
   facet normal 0.000000e+000 0.000000e+000 1.000000e+000
      outer loop
         vertex 0.000000e+000 0.000000e+000 2.000000e+000
         vertex -1.173314e-001 -2.761039e-001 2.000000e+000
         vertex -9.686412e-002 -2.839319e-001 2.000000e+000
      endloop
   endfacet
   facet normal 0.000000e+000 0.000000e+000 1.000000e+000
      outer loop
         vertex 0.000000e+000 0.000000e+000 2.000000e+000
         vertex -9.686412e-002 -2.839319e-001 2.000000e+000
         vertex -7.588001e-002 -2.902451e-001 2.000000e+000
      endloop
   endfacet
   facet normal 0.000000e+000 0.000000e+000 1.000000e+000
      outer loop
         vertex -1.919019e-001 -2.305941e-001 2.000000e+000
         vertex -1.745577e-001 -2.439869e-001 2.000000e+000
         vertex 0.000000e+000 0.000000e+000 2.000000e+000
      endloop
   endfacet
   facet normal 0.000000e+000 0.000000e+000 1.000000e+000
      outer loop
         vertex 0.000000e+000 0.000000e+000 2.000000e+000
         vertex -1.745577e-001 -2.439869e-001 2.000000e+000
         vertex -1.562821e-001 -2.560779e-001 2.000000e+000
      endloop
   endfacet
   facet normal 0.000000e+000 0.000000e+000 1.000000e+000
      outer loop
         vertex 0.000000e+000 0.000000e+000 2.000000e+000
         vertex -1.562821e-001 -2.560779e-001 2.000000e+000
         vertex -1.371727e-001 -2.668026e-001 2.000000e+000
      endloop
   endfacet
   facet normal 0.000000e+000 0.000000e+000 1.000000e+000
      outer loop
         vertex -2.374489e-001 -1.833521e-001 2.000000e+000
         vertex -2.234317e-001 -2.001956e-001 2.000000e+000
         vertex 0.000000e+000 0.000000e+000 2.000000e+000
      endloop
   endfacet
   facet normal 0.000000e+000 0.000000e+000 1.000000e+000
      outer loop
         vertex 0.000000e+000 0.000000e+000 2.000000e+000
         vertex -2.234317e-001 -2.001956e-001 2.000000e+000
         vertex -2.082223e-001 -2.159710e-001 2.000000e+000
      endloop
   endfacet
   facet normal 0.000000e+000 0.000000e+000 1.000000e+000
      outer loop
         vertex 0.000000e+000 0.000000e+000 2.000000e+000
         vertex -2.082223e-001 -2.159710e-001 2.000000e+000
         vertex -1.919019e-001 -2.305941e-001 2.000000e+000
      endloop
   endfacet
   facet normal 0.000000e+000 0.000000e+000 1.000000e+000
      outer loop
         vertex -2.716345e-001 -1.273370e-001 2.000000e+000
         vertex -2.616148e-001 -1.468254e-001 2.000000e+000
         vertex 0.000000e+000 0.000000e+000 2.000000e+000
      endloop
   endfacet
   facet normal 0.000000e+000 0.000000e+000 1.000000e+000
      outer loop
         vertex 0.000000e+000 0.000000e+000 2.000000e+000
         vertex -2.616148e-001 -1.468254e-001 2.000000e+000
         vertex -2.501993e-001 -1.655303e-001 2.000000e+000
      endloop
   endfacet
   facet normal 0.000000e+000 0.000000e+000 1.000000e+000
      outer loop
         vertex 0.000000e+000 0.000000e+000 2.000000e+000
         vertex -2.501993e-001 -1.655303e-001 2.000000e+000
         vertex -2.374489e-001 -1.833521e-001 2.000000e+000
      endloop
   endfacet
   facet normal 0.000000e+000 0.000000e+000 1.000000e+000
      outer loop
         vertex -2.928227e-001 -6.522905e-002 2.000000e+000
         vertex -2.872802e-001 -8.642973e-002 2.000000e+000
         vertex 0.000000e+000 0.000000e+000 2.000000e+000
      endloop
   endfacet
   facet normal 0.000000e+000 0.000000e+000 1.000000e+000
      outer loop
         vertex 0.000000e+000 0.000000e+000 2.000000e+000
         vertex -2.872802e-001 -8.642973e-002 2.000000e+000
         vertex -2.802048e-001 -1.071693e-001 2.000000e+000
      endloop
   endfacet
   facet normal 0.000000e+000 0.000000e+000 1.000000e+000
      outer loop
         vertex 0.000000e+000 0.000000e+000 2.000000e+000
         vertex -2.802048e-001 -1.071693e-001 2.000000e+000
         vertex -2.716345e-001 -1.273370e-001 2.000000e+000
      endloop
   endfacet
   facet normal 0.000000e+000 0.000000e+000 1.000000e+000
      outer loop
         vertex -3.000000e-001 3.673941e-017 2.000000e+000
         vertex -2.991997e-001 -2.189859e-002 2.000000e+000
         vertex 0.000000e+000 0.000000e+000 2.000000e+000
      endloop
   endfacet
   facet normal 0.000000e+000 0.000000e+000 1.000000e+000
      outer loop
         vertex 0.000000e+000 0.000000e+000 2.000000e+000
         vertex -2.991997e-001 -2.189859e-002 2.000000e+000
         vertex -2.968030e-001 -4.368035e-002 2.000000e+000
      endloop
   endfacet
   facet normal 0.000000e+000 0.000000e+000 1.000000e+000
      outer loop
         vertex 0.000000e+000 0.000000e+000 2.000000e+000
         vertex -2.968030e-001 -4.368035e-002 2.000000e+000
         vertex -2.928227e-001 -6.522905e-002 2.000000e+000
      endloop
   endfacet
   facet normal 0.000000e+000 0.000000e+000 1.000000e+000
      outer loop
         vertex -2.928227e-001 6.522905e-002 2.000000e+000
         vertex -2.968030e-001 4.368035e-002 2.000000e+000
         vertex 0.000000e+000 0.000000e+000 2.000000e+000
      endloop
   endfacet
   facet normal 0.000000e+000 0.000000e+000 1.000000e+000
      outer loop
         vertex 0.000000e+000 0.000000e+000 2.000000e+000
         vertex -2.968030e-001 4.368035e-002 2.000000e+000
         vertex -2.991997e-001 2.189859e-002 2.000000e+000
      endloop
   endfacet
   facet normal 0.000000e+000 0.000000e+000 1.000000e+000
      outer loop
         vertex 0.000000e+000 0.000000e+000 2.000000e+000
         vertex -2.991997e-001 2.189859e-002 2.000000e+000
         vertex -3.000000e-001 3.673941e-017 2.000000e+000
      endloop
   endfacet
   facet normal 0.000000e+000 0.000000e+000 1.000000e+000
      outer loop
         vertex -2.716345e-001 1.273370e-001 2.000000e+000
         vertex -2.802048e-001 1.071693e-001 2.000000e+000
         vertex 0.000000e+000 0.000000e+000 2.000000e+000
      endloop
   endfacet
   facet normal 0.000000e+000 0.000000e+000 1.000000e+000
      outer loop
         vertex 0.000000e+000 0.000000e+000 2.000000e+000
         vertex -2.802048e-001 1.071693e-001 2.000000e+000
         vertex -2.872802e-001 8.642973e-002 2.000000e+000
      endloop
   endfacet
   facet normal 0.000000e+000 0.000000e+000 1.000000e+000
      outer loop
         vertex 0.000000e+000 0.000000e+000 2.000000e+000
         vertex -2.872802e-001 8.642973e-002 2.000000e+000
         vertex -2.928227e-001 6.522905e-002 2.000000e+000
      endloop
   endfacet
   facet normal 0.000000e+000 0.000000e+000 1.000000e+000
      outer loop
         vertex -2.374489e-001 1.833521e-001 2.000000e+000
         vertex -2.501993e-001 1.655303e-001 2.000000e+000
         vertex 0.000000e+000 0.000000e+000 2.000000e+000
      endloop
   endfacet
   facet normal 0.000000e+000 0.000000e+000 1.000000e+000
      outer loop
         vertex 0.000000e+000 0.000000e+000 2.000000e+000
         vertex -2.501993e-001 1.655303e-001 2.000000e+000
         vertex -2.616148e-001 1.468254e-001 2.000000e+000
      endloop
   endfacet
   facet normal 0.000000e+000 0.000000e+000 1.000000e+000
      outer loop
         vertex 0.000000e+000 0.000000e+000 2.000000e+000
         vertex -2.616148e-001 1.468254e-001 2.000000e+000
         vertex -2.716345e-001 1.273370e-001 2.000000e+000
      endloop
   endfacet
   facet normal 0.000000e+000 0.000000e+000 1.000000e+000
      outer loop
         vertex -1.919019e-001 2.305941e-001 2.000000e+000
         vertex -2.082223e-001 2.159710e-001 2.000000e+000
         vertex 0.000000e+000 0.000000e+000 2.000000e+000
      endloop
   endfacet
   facet normal 0.000000e+000 0.000000e+000 1.000000e+000
      outer loop
         vertex 0.000000e+000 0.000000e+000 2.000000e+000
         vertex -2.082223e-001 2.159710e-001 2.000000e+000
         vertex -2.234317e-001 2.001956e-001 2.000000e+000
      endloop
   endfacet
   facet normal 0.000000e+000 0.000000e+000 1.000000e+000
      outer loop
         vertex 0.000000e+000 0.000000e+000 2.000000e+000
         vertex -2.234317e-001 2.001956e-001 2.000000e+000
         vertex -2.374489e-001 1.833521e-001 2.000000e+000
      endloop
   endfacet
   facet normal 0.000000e+000 0.000000e+000 1.000000e+000
      outer loop
         vertex -1.371727e-001 2.668026e-001 2.000000e+000
         vertex -1.562821e-001 2.560779e-001 2.000000e+000
         vertex 0.000000e+000 0.000000e+000 2.000000e+000
      endloop
   endfacet
   facet normal 0.000000e+000 0.000000e+000 1.000000e+000
      outer loop
         vertex 0.000000e+000 0.000000e+000 2.000000e+000
         vertex -1.562821e-001 2.560779e-001 2.000000e+000
         vertex -1.745577e-001 2.439869e-001 2.000000e+000
      endloop
   endfacet
   facet normal 0.000000e+000 0.000000e+000 1.000000e+000
      outer loop
         vertex 0.000000e+000 0.000000e+000 2.000000e+000
         vertex -1.745577e-001 2.439869e-001 2.000000e+000
         vertex -1.919019e-001 2.305941e-001 2.000000e+000
      endloop
   endfacet
   facet normal 0.000000e+000 0.000000e+000 1.000000e+000
      outer loop
         vertex -7.588001e-002 2.902451e-001 2.000000e+000
         vertex -9.686412e-002 2.839319e-001 2.000000e+000
         vertex 0.000000e+000 0.000000e+000 2.000000e+000
      endloop
   endfacet
   facet normal 0.000000e+000 0.000000e+000 1.000000e+000
      outer loop
         vertex 0.000000e+000 0.000000e+000 2.000000e+000
         vertex -9.686412e-002 2.839319e-001 2.000000e+000
         vertex -1.173314e-001 2.761039e-001 2.000000e+000
      endloop
   endfacet
   facet normal 0.000000e+000 0.000000e+000 1.000000e+000
      outer loop
         vertex 0.000000e+000 0.000000e+000 2.000000e+000
         vertex -1.173314e-001 2.761039e-001 2.000000e+000
         vertex -1.371727e-001 2.668026e-001 2.000000e+000
      endloop
   endfacet
   facet normal 0.000000e+000 0.000000e+000 1.000000e+000
      outer loop
         vertex -1.095661e-002 2.997999e-001 2.000000e+000
         vertex -3.281136e-002 2.982003e-001 2.000000e+000
         vertex 0.000000e+000 0.000000e+000 2.000000e+000
      endloop
   endfacet
   facet normal 0.000000e+000 0.000000e+000 1.000000e+000
      outer loop
         vertex 0.000000e+000 0.000000e+000 2.000000e+000
         vertex -3.281136e-002 2.982003e-001 2.000000e+000
         vertex -5.449105e-002 2.950097e-001 2.000000e+000
      endloop
   endfacet
   facet normal 0.000000e+000 0.000000e+000 1.000000e+000
      outer loop
         vertex 0.000000e+000 0.000000e+000 2.000000e+000
         vertex -5.449105e-002 2.950097e-001 2.000000e+000
         vertex -7.588001e-002 2.902451e-001 2.000000e+000
      endloop
   endfacet
   facet normal 0.000000e+000 0.000000e+000 1.000000e+000
      outer loop
         vertex 5.449105e-002 2.950097e-001 2.000000e+000
         vertex 3.281136e-002 2.982003e-001 2.000000e+000
         vertex 0.000000e+000 0.000000e+000 2.000000e+000
      endloop
   endfacet
   facet normal 0.000000e+000 0.000000e+000 1.000000e+000
      outer loop
         vertex 0.000000e+000 0.000000e+000 2.000000e+000
         vertex 3.281136e-002 2.982003e-001 2.000000e+000
         vertex 1.095661e-002 2.997999e-001 2.000000e+000
      endloop
   endfacet
   facet normal 0.000000e+000 0.000000e+000 1.000000e+000
      outer loop
         vertex 0.000000e+000 0.000000e+000 2.000000e+000
         vertex 1.095661e-002 2.997999e-001 2.000000e+000
         vertex -1.095661e-002 2.997999e-001 2.000000e+000
      endloop
   endfacet
   facet normal 0.000000e+000 0.000000e+000 1.000000e+000
      outer loop
         vertex 1.173314e-001 2.761039e-001 2.000000e+000
         vertex 9.686412e-002 2.839319e-001 2.000000e+000
         vertex 0.000000e+000 0.000000e+000 2.000000e+000
      endloop
   endfacet
   facet normal 0.000000e+000 0.000000e+000 1.000000e+000
      outer loop
         vertex 0.000000e+000 0.000000e+000 2.000000e+000
         vertex 9.686412e-002 2.839319e-001 2.000000e+000
         vertex 7.588001e-002 2.902451e-001 2.000000e+000
      endloop
   endfacet
   facet normal 0.000000e+000 0.000000e+000 1.000000e+000
      outer loop
         vertex 0.000000e+000 0.000000e+000 2.000000e+000
         vertex 7.588001e-002 2.902451e-001 2.000000e+000
         vertex 5.449105e-002 2.950097e-001 2.000000e+000
      endloop
   endfacet
   facet normal 0.000000e+000 0.000000e+000 1.000000e+000
      outer loop
         vertex 1.745577e-001 2.439869e-001 2.000000e+000
         vertex 1.562821e-001 2.560779e-001 2.000000e+000
         vertex 0.000000e+000 0.000000e+000 2.000000e+000
      endloop
   endfacet
   facet normal 0.000000e+000 0.000000e+000 1.000000e+000
      outer loop
         vertex 0.000000e+000 0.000000e+000 2.000000e+000
         vertex 1.562821e-001 2.560779e-001 2.000000e+000
         vertex 1.371727e-001 2.668026e-001 2.000000e+000
      endloop
   endfacet
   facet normal 0.000000e+000 0.000000e+000 1.000000e+000
      outer loop
         vertex 0.000000e+000 0.000000e+000 2.000000e+000
         vertex 1.371727e-001 2.668026e-001 2.000000e+000
         vertex 1.173314e-001 2.761039e-001 2.000000e+000
      endloop
   endfacet
   facet normal 0.000000e+000 0.000000e+000 1.000000e+000
      outer loop
         vertex 2.234317e-001 2.001956e-001 2.000000e+000
         vertex 2.082223e-001 2.159710e-001 2.000000e+000
         vertex 0.000000e+000 0.000000e+000 2.000000e+000
      endloop
   endfacet
   facet normal 0.000000e+000 0.000000e+000 1.000000e+000
      outer loop
         vertex 0.000000e+000 0.000000e+000 2.000000e+000
         vertex 2.082223e-001 2.159710e-001 2.000000e+000
         vertex 1.919019e-001 2.305941e-001 2.000000e+000
      endloop
   endfacet
   facet normal 0.000000e+000 0.000000e+000 1.000000e+000
      outer loop
         vertex 0.000000e+000 0.000000e+000 2.000000e+000
         vertex 1.919019e-001 2.305941e-001 2.000000e+000
         vertex 1.745577e-001 2.439869e-001 2.000000e+000
      endloop
   endfacet
   facet normal 0.000000e+000 0.000000e+000 1.000000e+000
      outer loop
         vertex 2.616148e-001 1.468254e-001 2.000000e+000
         vertex 2.501993e-001 1.655303e-001 2.000000e+000
         vertex 0.000000e+000 0.000000e+000 2.000000e+000
      endloop
   endfacet
   facet normal 0.000000e+000 0.000000e+000 1.000000e+000
      outer loop
         vertex 0.000000e+000 0.000000e+000 2.000000e+000
         vertex 2.501993e-001 1.655303e-001 2.000000e+000
         vertex 2.374489e-001 1.833521e-001 2.000000e+000
      endloop
   endfacet
   facet normal 0.000000e+000 0.000000e+000 1.000000e+000
      outer loop
         vertex 0.000000e+000 0.000000e+000 2.000000e+000
         vertex 2.374489e-001 1.833521e-001 2.000000e+000
         vertex 2.234317e-001 2.001956e-001 2.000000e+000
      endloop
   endfacet
   facet normal 0.000000e+000 0.000000e+000 1.000000e+000
      outer loop
         vertex 2.872802e-001 8.642973e-002 2.000000e+000
         vertex 2.802048e-001 1.071693e-001 2.000000e+000
         vertex 0.000000e+000 0.000000e+000 2.000000e+000
      endloop
   endfacet
   facet normal 0.000000e+000 0.000000e+000 1.000000e+000
      outer loop
         vertex 0.000000e+000 0.000000e+000 2.000000e+000
         vertex 2.802048e-001 1.071693e-001 2.000000e+000
         vertex 2.716345e-001 1.273370e-001 2.000000e+000
      endloop
   endfacet
   facet normal 0.000000e+000 0.000000e+000 1.000000e+000
      outer loop
         vertex 0.000000e+000 0.000000e+000 2.000000e+000
         vertex 2.716345e-001 1.273370e-001 2.000000e+000
         vertex 2.616148e-001 1.468254e-001 2.000000e+000
      endloop
   endfacet
   facet normal 0.000000e+000 0.000000e+000 1.000000e+000
      outer loop
         vertex 2.991997e-001 2.189859e-002 2.000000e+000
         vertex 2.968030e-001 4.368035e-002 2.000000e+000
         vertex 0.000000e+000 0.000000e+000 2.000000e+000
      endloop
   endfacet
   facet normal 0.000000e+000 0.000000e+000 1.000000e+000
      outer loop
         vertex 0.000000e+000 0.000000e+000 2.000000e+000
         vertex 2.968030e-001 4.368035e-002 2.000000e+000
         vertex 2.928227e-001 6.522905e-002 2.000000e+000
      endloop
   endfacet
   facet normal 0.000000e+000 0.000000e+000 1.000000e+000
      outer loop
         vertex 0.000000e+000 0.000000e+000 2.000000e+000
         vertex 2.928227e-001 6.522905e-002 2.000000e+000
         vertex 2.872802e-001 8.642973e-002 2.000000e+000
      endloop
   endfacet
endsolid
